<svg xmlns="http://www.w3.org/2000/svg" version="1.1" xmlns:xlink="http://www.w3.org/1999/xlink" xmlns:svgjs="http://svgjs.dev/svgjs" width="2000" height="1500" viewBox="0 0 2000 1500"><rect width="2000" height="1500" fill="#ffffff"></rect><g transform="matrix(0.75,0,0,0.75,249.090909090909,480.5892413490701)"><svg viewBox="0 0 396 142" data-background-color="#ffffff" preserveAspectRatio="xMidYMid meet" height="717" width="2000" xmlns="http://www.w3.org/2000/svg" xmlns:xlink="http://www.w3.org/1999/xlink"><g id="tight-bounds" transform="matrix(1,0,0,1,0.2400000000000091,0.1414741579396548)"><svg viewBox="0 0 395.52 141.7170516841207" height="141.7170516841207" width="395.52"><g><svg viewBox="0 0 560.9735670849259 200.99999999999997" height="141.7170516841207" width="395.52"><g><rect width="8.409526840648478" height="200.99999999999997" x="216.25099116910502" y="0" fill="#000000" opacity="1" stroke-width="0" stroke="transparent" fill-opacity="1" class="rect-yte-0" data-fill-palette-color="primary" rx="1%" id="yte-0" data-palette-color="#000000"></rect></g><g transform="matrix(1,0,0,1,246.67498617899037,0.4999999999999858)"><svg viewBox="0 0 314.2985809059356 200" height="200" width="314.2985809059356"><g id="textblocktransform"><svg viewBox="0 0 314.2985809059356 200" height="200" width="314.2985809059356" id="textblock"><g><svg viewBox="0 0 314.2985809059356 200" height="200" width="314.2985809059356"><g transform="matrix(1,0,0,1,0,0)"><svg width="314.2985809059356" viewBox="3.6400000000000006 -31.929999999999996 139.72000000000003 84.69" height="200" data-palette-color="#000000"><svg></svg><svg></svg><g class="wordmark-text-0" data-fill-palette-color="primary" id="text-0"><path d="M10.57 0v0h-6.93v-31.35h6.66c1.86 0 3.48 0.123 4.86 0.37 1.387 0.24 2.587 0.647 3.6 1.22 1.02 0.567 1.86 1.25 2.52 2.05 0.66 0.8 1.187 1.813 1.58 3.04 0.4 1.227 0.683 2.567 0.85 4.02 0.16 1.447 0.24 3.153 0.24 5.12v0c0 1.513-0.043 2.85-0.13 4.01-0.093 1.153-0.26 2.29-0.5 3.41-0.247 1.127-0.583 2.09-1.01 2.89-0.42 0.793-0.963 1.537-1.63 2.23-0.667 0.693-1.47 1.247-2.41 1.66-0.933 0.413-2.043 0.74-3.33 0.98-1.287 0.233-2.743 0.35-4.37 0.35zM10.3-28.91v0h-3.54v26.47h3.81c1.04 0 1.98-0.053 2.82-0.16 0.84-0.107 1.593-0.253 2.26-0.44 0.667-0.187 1.253-0.45 1.76-0.79 0.5-0.347 0.933-0.71 1.3-1.09 0.367-0.38 0.677-0.863 0.93-1.45 0.253-0.587 0.457-1.17 0.61-1.75 0.153-0.573 0.273-1.28 0.36-2.12 0.08-0.84 0.137-1.653 0.17-2.44 0.033-0.793 0.05-1.743 0.05-2.85v0c0-1.727-0.05-3.18-0.15-4.36-0.1-1.18-0.283-2.3-0.55-3.36-0.267-1.067-0.64-1.93-1.12-2.59-0.48-0.66-1.117-1.233-1.91-1.72-0.787-0.493-1.733-0.84-2.84-1.04-1.107-0.207-2.427-0.31-3.96-0.31zM40.65-2.34v0c1.647 0 2.89-0.23 3.73-0.69v0l-3-4.17 1.74-1.37 2.97 4.18c0.847-1.027 1.453-2.46 1.82-4.3 0.367-1.84 0.55-4.193 0.55-7.06v0c0-4.833-0.563-8.283-1.69-10.35-1.133-2.067-3.173-3.1-6.12-3.1-2.947 0-4.987 1.033-6.12 3.1-1.127 2.067-1.69 5.517-1.69 10.35v0c0 4.82 0.56 8.26 1.68 10.32 1.127 2.06 3.17 3.09 6.13 3.09zM51.07 2.54l-1.73 1.34-3.3-4.59c-1.447 0.733-3.243 1.1-5.39 1.1v0c-1.74 0-3.25-0.243-4.53-0.73-1.28-0.487-2.327-1.167-3.14-2.04-0.813-0.873-1.463-1.997-1.95-3.37-0.487-1.373-0.83-2.863-1.03-4.47-0.193-1.6-0.29-3.467-0.29-5.6v0c0-2.653 0.177-4.933 0.53-6.84 0.347-1.9 0.927-3.567 1.74-5 0.813-1.433 1.937-2.503 3.37-3.21 1.433-0.707 3.2-1.06 5.3-1.06 2.1 0 3.867 0.353 5.3 1.06 1.433 0.707 2.557 1.777 3.37 3.21 0.813 1.433 1.393 3.1 1.74 5 0.353 1.907 0.53 4.187 0.53 6.84v0c0 3.433-0.283 6.29-0.85 8.57-0.56 2.28-1.523 4.047-2.89 5.3v0z" fill="#000000" fill-rule="nonzero" stroke="none" stroke-width="1" stroke-linecap="butt" stroke-linejoin="miter" stroke-miterlimit="10" stroke-dasharray="" stroke-dashoffset="0" font-family="none" font-weight="none" font-size="none" text-anchor="none" style="mix-blend-mode: normal" data-fill-palette-color="primary" opacity="1"></path><path transform="translate(0,44.46)" d="M10.57 0v0h-6.93v-31.35h6.66c1.86 0 3.48 0.123 4.86 0.37 1.387 0.24 2.587 0.647 3.6 1.22 1.02 0.567 1.86 1.25 2.52 2.05 0.66 0.8 1.187 1.813 1.58 3.04 0.4 1.227 0.683 2.567 0.85 4.02 0.16 1.447 0.24 3.153 0.24 5.12v0c0 1.513-0.043 2.85-0.13 4.01-0.093 1.153-0.26 2.29-0.5 3.41-0.247 1.127-0.583 2.09-1.01 2.89-0.42 0.793-0.963 1.537-1.63 2.23-0.667 0.693-1.47 1.247-2.41 1.66-0.933 0.413-2.043 0.74-3.33 0.98-1.287 0.233-2.743 0.35-4.37 0.35zM10.3-28.91v0h-3.54v26.47h3.81c1.04 0 1.98-0.053 2.82-0.16 0.84-0.107 1.593-0.253 2.26-0.44 0.667-0.187 1.253-0.45 1.76-0.79 0.5-0.347 0.933-0.71 1.3-1.09 0.367-0.38 0.677-0.863 0.93-1.45 0.253-0.587 0.457-1.17 0.61-1.75 0.153-0.573 0.273-1.28 0.36-2.12 0.08-0.84 0.137-1.653 0.17-2.44 0.033-0.793 0.05-1.743 0.05-2.85v0c0-1.727-0.05-3.18-0.15-4.36-0.1-1.18-0.283-2.3-0.55-3.36-0.267-1.067-0.64-1.93-1.12-2.59-0.48-0.66-1.117-1.233-1.91-1.72-0.787-0.493-1.733-0.84-2.84-1.04-1.107-0.207-2.427-0.31-3.96-0.31zM33.74-30.86v0c0-0.68 0.213-1.227 0.64-1.64 0.42-0.407 0.947-0.61 1.58-0.61v0c0.667 0 1.2 0.19 1.6 0.57 0.4 0.373 0.6 0.917 0.6 1.63 0 0.72-0.2 1.267-0.6 1.64-0.4 0.373-0.933 0.56-1.6 0.56v0c-0.647 0-1.18-0.19-1.6-0.57-0.413-0.387-0.62-0.913-0.62-1.58zM34.4-21.85h-4.69v-2.2h7.81v21.85h4.69v2.2h-12.5v-2.2h4.69zM56.08 5.74v0c2.633 0 4.61-0.45 5.93-1.35 1.32-0.893 1.98-1.957 1.98-3.19v0c0-0.933-0.24-1.63-0.72-2.09-0.48-0.467-1.437-0.7-2.87-0.7v0h-9.25c-1.187 1.127-1.78 2.3-1.78 3.52v0c0 0.327 0.02 0.607 0.06 0.84 0.04 0.24 0.123 0.52 0.25 0.84 0.133 0.327 0.35 0.603 0.65 0.83 0.3 0.233 0.683 0.453 1.15 0.66 0.46 0.213 1.087 0.373 1.88 0.48 0.787 0.107 1.693 0.16 2.72 0.16zM61.47-23.85v0h7.01v2.29h-5.44c0.847 0.633 1.497 1.417 1.95 2.35 0.453 0.927 0.68 1.843 0.68 2.75v0c0 2.22-0.83 3.983-2.49 5.29-1.66 1.313-3.84 1.97-6.54 1.97v0c-1.853 0-3.53-0.303-5.03-0.91v0c-1.073 1.74-1.61 3.043-1.61 3.91v0c0 0.387 0.067 0.763 0.2 1.13 0.127 0.367 0.257 0.633 0.39 0.8v0l0.17 0.24h9.25c2.573 0 4.367 0.4 5.38 1.2 1.02 0.793 1.53 2.07 1.53 3.83v0c0 0.667-0.103 1.317-0.31 1.95-0.2 0.64-0.56 1.29-1.08 1.95-0.52 0.653-1.18 1.23-1.98 1.73-0.8 0.493-1.853 0.897-3.16 1.21-1.313 0.307-2.8 0.46-4.46 0.46v0c-1.547 0-2.917-0.143-4.11-0.43-1.2-0.28-2.14-0.63-2.82-1.05-0.687-0.413-1.243-0.903-1.67-1.47-0.433-0.573-0.723-1.103-0.87-1.59-0.147-0.487-0.22-0.983-0.22-1.49v0c0-0.913 0.307-1.823 0.92-2.73 0.607-0.913 1.203-1.54 1.79-1.88v0c-0.54-0.36-0.963-0.867-1.27-1.52-0.307-0.647-0.46-1.29-0.46-1.93v0c0-0.86 0.187-1.673 0.56-2.44 0.373-0.767 1.023-1.807 1.95-3.12v0c-1.807-1.513-2.71-3.33-2.71-5.45v0c0-2.553 0.883-4.46 2.65-5.72 1.767-1.26 4.05-1.89 6.85-1.89v0c0.733 0 1.587 0.093 2.56 0.28 0.98 0.187 1.777 0.28 2.39 0.28zM56.67-22.09v0c-2.247 0-3.897 0.48-4.95 1.44-1.047 0.96-1.57 2.237-1.57 3.83v0c0 1.693 0.553 2.987 1.66 3.88 1.107 0.893 2.643 1.34 4.61 1.34v0c2.087 0 3.673-0.413 4.76-1.24 1.093-0.833 1.64-2.07 1.64-3.71v0c0-1.6-0.523-2.923-1.57-3.97-1.04-1.047-2.567-1.57-4.58-1.57zM76.93-30.86v0c0-0.68 0.21-1.227 0.63-1.64 0.427-0.407 0.957-0.61 1.59-0.61v0c0.667 0 1.2 0.19 1.6 0.57 0.4 0.373 0.6 0.917 0.6 1.63 0 0.72-0.2 1.267-0.6 1.64-0.4 0.373-0.933 0.56-1.6 0.56v0c-0.653 0-1.187-0.19-1.6-0.57-0.413-0.387-0.62-0.913-0.62-1.58zM77.59-21.85h-4.69v-2.2h7.81v21.85h4.69v2.2h-12.5v-2.2h4.69zM98.07 0.24v0c-1.3-0.027-2.37-0.237-3.21-0.63-0.84-0.393-1.493-1.007-1.96-1.84-0.473-0.84-0.8-1.827-0.98-2.96-0.18-1.127-0.27-2.553-0.27-4.28v0-12.38h-3.73v-2.2h3.83l0.61-6.88h2.42v6.88h7.51v2.2h-7.51v12.43c0 1.56 0.083 2.827 0.25 3.8 0.173 0.98 0.46 1.703 0.86 2.17 0.393 0.46 0.81 0.76 1.25 0.9 0.44 0.14 1.027 0.21 1.76 0.21v0c1.68 0 2.9-0.057 3.66-0.17v0l0.13 2.51c-1.307 0.16-2.847 0.24-4.62 0.24zM110.25-6.79v0c0 3.027 1.76 4.54 5.28 4.54v0c1.04 0 2.1-0.153 3.18-0.46 1.087-0.307 1.98-0.69 2.68-1.15v0-7.69h-1.37c-0.78 0-1.497 0.02-2.15 0.06-0.653 0.04-1.377 0.11-2.17 0.21-0.8 0.1-1.5 0.263-2.1 0.49-0.6 0.227-1.167 0.507-1.7 0.84-0.527 0.333-0.933 0.77-1.22 1.31-0.287 0.533-0.43 1.15-0.43 1.85zM109.33-20.58l-0.61-2.42c2.88-0.94 5.387-1.41 7.52-1.41v0c1.2 0 2.28 0.167 3.24 0.5 0.96 0.333 1.82 0.853 2.58 1.56 0.753 0.707 1.34 1.673 1.76 2.9 0.413 1.233 0.62 2.697 0.62 4.39v0 15.06h-2.25l-0.49-1.61c-0.58 0.473-1.523 0.9-2.83 1.28-1.3 0.38-2.577 0.57-3.83 0.57v0c-2.347 0-4.22-0.61-5.62-1.83-1.4-1.22-2.1-3-2.1-5.34v0c0-0.753 0.12-1.45 0.36-2.09 0.233-0.647 0.64-1.27 1.22-1.87 0.58-0.6 1.313-1.117 2.2-1.55 0.887-0.433 2.02-0.773 3.4-1.02 1.387-0.253 2.967-0.38 4.74-0.38v0h2.15v-0.78c-0.02-2.673-0.49-4.547-1.41-5.62-0.92-1.073-2.217-1.61-3.89-1.61v0c-0.247 0-0.51 0.013-0.79 0.04-0.287 0.02-0.537 0.043-0.75 0.07-0.213 0.027-0.503 0.077-0.87 0.15-0.367 0.073-0.633 0.12-0.8 0.14-0.173 0.027-0.48 0.093-0.92 0.2-0.44 0.107-0.717 0.177-0.83 0.21-0.113 0.027-0.427 0.107-0.94 0.24-0.513 0.127-0.8 0.2-0.86 0.22zM129.69-30.93v-2.22h8.52v30.95h5.15v2.2h-13.72v-2.2h5.44v-28.73z" fill="#000000" fill-rule="nonzero" stroke="none" stroke-width="1" stroke-linecap="butt" stroke-linejoin="miter" stroke-miterlimit="10" stroke-dasharray="" stroke-dashoffset="0" font-family="none" font-weight="none" font-size="none" text-anchor="none" style="mix-blend-mode: normal" data-fill-palette-color="primary" opacity="1"></path></g></svg></g></svg></g></svg></g></svg></g><g transform="matrix(1,0,0,1,0,21.780892454843524)"><svg viewBox="0 0 194.23652299986816 157.43821509031292" height="157.43821509031292" width="194.23652299986816"><g><svg xmlns:x="http://ns.adobe.com/Extensibility/1.0/" xmlns:i="http://ns.adobe.com/AdobeIllustrator/10.0/" xmlns:graph="http://ns.adobe.com/Graphs/1.0/" xmlns="http://www.w3.org/2000/svg" xmlns:xlink="http://www.w3.org/1999/xlink" version="1.1" x="0" y="0" viewBox="3.5 12.3 92.9 75.3" enable-background="new 0 0 100 100" xml:space="preserve" height="157.43821509031292" width="194.23652299986816" class="icon-icon-0" data-fill-palette-color="accent" id="icon-0"><path d="M10.7 87.6H89.2C93.2 87.6 96.4 84.4 96.4 80.4V19.5C96.4 15.5 93.2 12.3 89.2 12.3H10.7C6.7 12.3 3.5 15.5 3.5 19.5V80.4C3.6 84.4 6.8 87.6 10.7 87.6M89.3 82.6H10.7C9.5 82.6 8.5 81.6 8.5 80.4V34.9H91.4V80.4C91.4 81.7 90.5 82.6 89.3 82.6M10.7 17.4H89.2C90.4 17.4 91.4 18.4 91.4 19.6V30H8.6V19.5C8.6 18.3 9.5 17.4 10.7 17.4M21.9 23.6C21.9 21.9 23.3 20.6 24.9 20.6S27.9 22 27.9 23.6C27.9 25.3 26.5 26.6 24.9 26.6S21.9 25.3 21.9 23.6M31.9 23.6C31.9 21.9 33.3 20.6 34.9 20.6S37.9 22 37.9 23.6C37.9 25.3 36.5 26.6 34.9 26.6S31.9 25.3 31.9 23.6M11.9 23.6C11.9 21.9 13.3 20.6 14.9 20.6 16.6 20.6 17.9 22 17.9 23.6 17.9 25.3 16.5 26.6 14.9 26.6 13.3 26.7 11.9 25.3 11.9 23.6M85.4 74.7C85.4 76.1 84.3 77.2 82.9 77.2H17.1C15.7 77.2 14.6 76.1 14.6 74.7S15.7 72.2 17.1 72.2H82.9C84.3 72.2 85.4 73.4 85.4 74.7M85.4 64.2C85.4 65.6 84.3 66.7 82.9 66.7H34.4C33 66.7 31.9 65.6 31.9 64.2S33 61.7 34.4 61.7H82.9C84.3 61.7 85.4 62.8 85.4 64.2M85.4 53.7C85.4 55.1 84.3 56.2 82.9 56.2H17.1C15.7 56.2 14.6 55.1 14.6 53.7S15.7 51.2 17.1 51.2H82.9C84.3 51.2 85.4 52.3 85.4 53.7M85.4 43.1C85.4 44.5 84.3 45.6 82.9 45.6H50C48.6 45.6 47.5 44.5 47.5 43.1S48.6 40.6 50 40.6H82.9C84.3 40.6 85.4 41.7 85.4 43.1" fill="#d2d6dc" data-fill-palette-color="accent"></path></svg><g></g></g></svg></g></svg></g><defs></defs></svg><rect width="395.52" height="141.7170516841207" fill="none" stroke="none" visibility="hidden"></rect></g></svg></g></svg>