<svg viewBox="31.236486486486513 0 353.10810810810807 544.9999999999999" fill="none" xmlns="http://www.w3.org/2000/svg" xmlns:xlink="http://www.w3.org/1999/xlink" overflow="visible" width="353.10810810810807px" height="544.9999999999999px"><g id="Master/Composition/Phone"><g id="Background" opacity="0.2"><circle id="Oval" cx="200.851" cy="197.267" r="154.851" fill="#FFA434"/><circle id="Oval" cx="295.109" cy="517.069" r="27.604" fill="#393f82"/><path id="Polygon" fill-rule="evenodd" clip-rule="evenodd" d="M175.277 -0.0197754L208.277 32.9802L175.277 65.9802L142.277 32.9802L175.277 -0.0197754Z" fill="#393f82"/><path id="Polygon" fill-rule="evenodd" clip-rule="evenodd" d="M83.7029 464.554L99.8613 480.713L83.7029 496.871L67.5444 480.713L83.7029 464.554Z" fill="#FFA434"/><path id="Polygon_2" fill-rule="evenodd" clip-rule="evenodd" d="M317.327 42.4159L325.406 50.4951L317.327 58.5743L309.248 50.4951L317.327 42.4159Z" fill="#2026A2"/></g><g id="Phone"><path id="base" fill-rule="evenodd" clip-rule="evenodd" d="M55.515 79.1982L175.351 75.0134C188.896 74.5404 200.26 85.1375 200.733 98.6826L211.144 396.826C211.617 410.371 201.02 421.735 187.475 422.208L67.6393 426.392C54.0941 426.865 42.7302 416.268 42.2572 402.723L31.8458 104.58C31.3728 91.0351 41.9699 79.6712 55.515 79.1982Z" fill="#F2F2F2"/><path id="Screen" fill-rule="evenodd" clip-rule="evenodd" d="M74.4058 88.678C74.5813 93.7053 78.7281 97.6576 83.726 97.6253L83.9946 97.6197L148.201 95.3776C153.228 95.202 157.181 91.0552 157.148 86.0573L157.143 85.7888L157.048 83.063L175.895 82.4049C184.925 82.0895 192.501 89.1542 192.816 98.1843L203.265 397.417C203.581 406.447 196.516 414.023 187.486 414.338L66.5909 418.56C57.5608 418.875 49.9849 411.81 49.6695 402.78L39.2201 103.548C38.9048 94.5179 45.9695 86.942 54.9996 86.6266L74.3106 85.9523L74.4058 88.678Z" fill="#240E6A"/></g><g id="Character"><g id="Head/Front" transform="matrix(-0.891007 -0.45399 -0.45399 0.891007 380.113 241.778) scale(0.6732673084034639 0.6732672911423904)"><g id="Head/Front/Long"><path id="Hair Back" fill-rule="evenodd" clip-rule="evenodd" d="M72.5 27C60.6259 27 51 36.6259 51 48.5V69.5C51 80.5658 59.3599 89.679 70.1086 90.8685C70.1114 90.9197 70.1143 90.971 70.1173 91.0225H99.1173C103.701 86.5438 99.209 57.9923 95.762 45.2902C94.2125 34.9385 85.2833 27 74.5 27H72.5Z" fill="#181658"/><g id="Head"><path id="SKIN" fill-rule="evenodd" clip-rule="evenodd" d="M73.9354 75.2443C80.411 79.1475 86.7736 81.0333 89.7603 80.2635C97.2496 78.333 97.9382 50.9351 92.1433 40.1339C86.3485 29.3328 56.5583 24.625 55.0568 46.0255C54.5356 53.4529 57.6544 60.0814 62.2623 65.4901L54 104H78L73.9354 75.2443Z" fill="#d4a181"/></g><path id="Hair Front" fill-rule="evenodd" clip-rule="evenodd" d="M51.8812 46.1504C52.578 45.4614 53.2522 44.7947 53.9211 44.1981L53.8889 43.4207C53.8889 43.4207 61.4214 28 73.0014 28C84.5711 28 88.23 33.3787 91.3403 37.9508L91.3487 37.9631C89.7218 43.5452 84.8187 45.8037 79.2736 48.3579C76.8866 49.4574 74.3806 50.6117 71.9657 52.1095C71.0199 51.341 69.8137 50.8804 68.5 50.8804C65.4624 50.8804 63 53.3428 63 56.3804C63 59.418 65.4624 61.8804 68.5 61.8804C68.5838 61.8804 68.6671 61.8785 68.75 61.8748C69.8557 73.7528 69.4127 87.3173 66.1173 90.5371H37.1173C36.2848 76.0731 40.0264 71.947 43.8498 67.7307C47.4474 63.7635 51.1173 59.7166 51.1173 46.9028C51.3754 46.6506 51.6298 46.3991 51.8812 46.1505L51.8812 46.1504Z" fill="#181658"/></g></g><g id="Lower Body/Standing" transform="matrix(-1 0 0 1 393.287 337.346) scale(0.6732673136393229 0.6732673166187239)"><g id="Lower Body/Standing/Baggy Pants"><path id="SKIN" fill-rule="evenodd" clip-rule="evenodd" d="M134 0L183.082 124.227L216.001 229.25H229L176.674 0L134 0Z" fill="#d4a181"/><path id="SKIN" fill-rule="evenodd" clip-rule="evenodd" d="M124.117 0C123.594 43.6542 115.972 102.427 114.754 105.149C113.536 107.87 30.6758 174.358 30.6758 174.358L39.629 183.939C39.629 183.939 137.397 126.934 141.921 119.331C146.445 111.728 161.174 41.7631 173 0H124.117Z" fill="#d4a181"/><g id="Left [Shoe]"><path id="shoe" fill-rule="evenodd" clip-rule="evenodd" d="M32.116 172.564C31.7884 171.44 30.604 170.771 29.5042 171.173C27.4981 171.906 24.5641 173.092 23.2642 174.183C21.1921 175.922 17.7961 179.948 17.7961 179.948C19.8131 182.352 54.0505 223.154 54.0505 223.154C54.0505 223.154 61.0315 220.166 58.4307 216.165C55.8299 212.164 54.1738 209.464 54.1738 209.464L46.2757 181.87C46.1206 181.328 45.549 181.022 45.012 181.192L40.7975 182.529C40.7975 182.529 36.4116 180.485 34.6494 178.384C33.5766 177.106 32.665 174.448 32.116 172.564Z" fill="#E4E4E4"/></g><g id="Right {Shoe]"><path id="shoe_2" fill-rule="evenodd" clip-rule="evenodd" d="M213.45 223.284C212.378 222.813 211.104 223.29 210.705 224.391C209.977 226.398 209 229.409 209 231.106C209 233.811 209.901 239 209.901 239C213.039 239 266.303 239 266.303 239C266.303 239 268.502 231.732 263.765 231.152C259.028 230.573 255.895 230.106 255.895 230.106L229.68 218.419C229.165 218.189 228.563 218.43 228.348 218.951L226.663 223.039C226.663 223.039 222.278 225.085 219.537 225.085C217.868 225.085 215.246 224.074 213.45 223.284Z" fill="#E4E4E4"/></g><path id="Pant" fill-rule="evenodd" clip-rule="evenodd" d="M167 218.433L228.804 211.725L179 0H127.644L167 218.433Z" fill="#191847"/><path id="Pant" fill-rule="evenodd" clip-rule="evenodd" d="M43.46 158.9L84 206.886C84 206.886 148.05 136.932 158.683 115.596C169.315 94.26 177.799 0 177.799 0H115.478C115.478 0 110.844 82.9258 109.231 86.7848C107.617 90.6437 43.46 158.9 43.46 158.9Z" fill="#393f82"/></g></g><g id="Upper Body" transform="matrix(-0.970296 -0.241922 -0.241922 0.970296 397.683 292.194) scale(0.6732673048973083 0.6732673441025026)"><g id="Upper Body/Hoodie"><path id="SKIN" fill-rule="evenodd" clip-rule="evenodd" d="M222.68 115.635L190.781 92.2115L183.73 109.642L215.318 122.741C224.251 133.235 229.246 137.61 230.304 135.865C231.195 134.394 230.499 133.017 229.857 131.749C229.357 130.76 228.89 129.838 229.233 128.989C230.018 127.049 236.019 127.254 241.705 127.691C247.392 128.128 245.735 125.598 244.364 124.349C238.559 120.874 231.331 117.97 222.68 115.635ZM55.398 156.908C58.3285 150.963 68.308 93.0199 68.308 93.0199L89.2054 93.1021C89.2054 93.1021 69.8506 155.583 68.308 159.406C66.3041 164.372 69.708 171.587 72.0162 176.48C72.3733 177.237 72.7041 177.938 72.9847 178.567C69.782 180 68.2435 178.268 66.6216 176.442C64.7896 174.379 62.8512 172.197 58.288 174.319C56.525 175.14 54.8568 176.109 53.2269 177.057C47.5969 180.329 42.4249 183.336 35.3891 178.994C34.2737 178.306 33.0514 175.715 36.0047 173.69C43.3624 168.645 53.9654 159.815 55.398 156.908Z" fill="#d4a181"/><path id="Coat Back" fill-rule="evenodd" clip-rule="evenodd" d="M127.695 5.33203L136.342 3.84886C168.425 31.5643 181.603 84.8089 220.929 113.015L211.464 124.748C143.24 116.3 126.33 51.3548 127.695 5.33203Z" fill="#c5cfd6"/><path id="Shirt" fill-rule="evenodd" clip-rule="evenodd" d="M90 114C90 114 142.008 114 166.511 114C170.008 114 169.349 108.952 168.843 106.404C163.011 77.0038 140.241 45.3115 140.241 3.46073L118.172 0C99.9175 29.3584 93.6048 65.5046 90 114Z" fill="#C7D1D9"/><path id="Coat Front" fill-rule="evenodd" clip-rule="evenodd" d="M81.3968 135C77.9582 143.259 74.5862 150.465 71.4089 156H54.9999C53.2345 98.9186 74.8454 54.9964 92.9315 28.5129C88.9158 28.2259 85.2911 26.5455 82.9999 22.4112C74.9335 7.85608 77.8467 -0.157593 86.4671 -2.79173C91.2074 -4.24021 95.6656 -3.25154 101.002 -2.06804C105.369 -1.09961 110.325 -0.000719281 116.504 2.76336e-08C116.506 2.76336e-08 116.508 2.76336e-08 116.51 2.76336e-08C117.109 2.76336e-08 117.654 0.0401216 118.148 0.116866L125.472 0.53474C125.472 0.53474 155.205 101.305 141.872 135H81.3968Z" fill="#f2f2f2"/><path id="Shade" fill-rule="evenodd" clip-rule="evenodd" d="M81.397 135C85.9087 124.164 90.5352 111.516 94.9874 98.4544C96.6448 112.839 99.4048 127.286 104 135H81.397Z" fill="black" fill-opacity="0.1"/></g></g></g><g id="illustration"><mask id="mask0_410_633945529bf9-f2ef-4d52-929a-2708ecb779be" style="mask-type:luminance" maskUnits="userSpaceOnUse" x="39" y="0" width="340" height="545" fill="#ffffff"><path id="Screen_2" fill-rule="evenodd" clip-rule="evenodd" d="M187.486 414.338L66.5909 418.56C57.5608 418.875 49.9849 411.81 49.6695 402.78L39.2201 103.548C38.9048 94.518 45.9695 86.942 54.9996 86.6266L83.7029 0L379 0V544.673H249.277C249.277 544.673 189.221 414.277 187.486 414.338Z" fill="#ffffff"/></mask><g mask="url(#mask0_410_633945529bf9-f2ef-4d52-929a-2708ecb779be)"><g id="Head/Front" transform="rotate(44 188.044 20.7349) translate(188.044 20.7349) scale(1.1516185087316178 1.150073271531325)"><g id="Head/Front/Short Beard"><g id="Head"><path id="SKIN" fill-rule="evenodd" clip-rule="evenodd" d="M73.9354 75.2443C80.411 79.1475 86.7736 81.0333 89.7603 80.2635C97.2496 78.333 97.9382 50.9351 92.1433 40.1339C86.3485 29.3328 56.5583 24.625 55.0568 46.0255C54.5356 53.4529 57.6544 60.0814 62.2623 65.4901L54 104H78L73.9354 75.2443Z" fill="#d4a181"/></g><path id="Hair" fill-rule="evenodd" clip-rule="evenodd" d="M71.7199 51.0426C71.4839 51.0144 71.2437 50.9999 71.0001 50.9999C67.6864 50.9999 65.0001 53.6862 65.0001 56.9999C65.0001 58.6821 65.6924 60.2026 66.8076 61.2921C65.4193 63.2517 63.8634 65.2988 62.0805 67.4111C55.3825 63.3926 49.4122 50.6289 55.9606 39.3282C57.7706 33.7921 62.8681 31.8351 67.7075 30.4621C71.6276 28.8223 75.697 28.6374 79.1322 29.6205C85.8661 30.198 91.8791 32.2514 93.5833 33.4708C93.5833 39.8461 92.348 41.7376 81.7969 41.5708C79.2043 42.94 77.2113 45.2978 75.1354 48.3888C75.1527 48.626 76.5501 67.5846 82.4259 67.5846C85.9827 67.5846 89.2152 66.2263 91.7912 65.1439C93.4976 64.4269 94.9159 63.8309 95.9497 63.8309C97.8409 63.8309 97.4187 66.1976 96.1651 67.9524C95.7677 68.5086 94.7795 69.0571 93.7132 69.6489C92.004 70.5976 90.094 71.6578 90.094 73.0399C90.094 74.3079 91.3641 74.3054 92.4692 74.3032C93.3203 74.3015 94.0735 74.3 94.0735 74.8791C94.0735 75.1563 94.0846 75.4642 94.0963 75.7907C94.1779 78.0577 94.2918 81.2209 90.9513 81.2209C87.0838 81.2209 75.9949 79.8115 74.0945 74.0714C72.4826 69.2025 71.8691 55.1856 71.7199 51.0426Z" fill="#181658"/></g></g><g id="Lower Body/Standing" transform="rotate(12 -72.7554 194.5) translate(-72.7554 194.5) scale(1.151287129720052 1.1521603891540273)"><g id="Lower Body/Standing/Skinny Jeans Walk"><path id="Leg" fill-rule="evenodd" clip-rule="evenodd" d="M128 0L176.082 127.227L209.783 221H229L182.674 0L128 0Z" fill="#191847"/><path id="Leg" fill-rule="evenodd" clip-rule="evenodd" d="M116.117 0C115.594 43.6542 115.972 102.427 114.754 105.149C113.536 107.87 39 167.157 39 167.157L48.905 184C48.905 184 137.397 126.934 141.921 119.331C146.445 111.728 169.174 41.7631 181 0H116.117Z" fill="#393f82"/><path id="Shoe" fill-rule="evenodd" clip-rule="evenodd" d="M21.5742 178.491L38.3039 165.759L51.8025 181.846C53.3599 200.037 63.8484 222.649 63.8484 222.649L60.7842 225.22L36.3583 196.11L29.5342 184.866L28.0021 186.152L21.5742 178.491Z" fill="#191847"/><path id="Shoe_2" fill-rule="evenodd" clip-rule="evenodd" d="M208 239L209 218L230 218C244.936 228.5 269 235 269 235V239H231L218 237V239H208Z" fill="#191847"/></g></g><g id="Upper Body" transform="rotate(33 50.2139 66.051) translate(50.2139 66.051) scale(1.1516185998916626 1.150073209548379)"><g id="Upper Body/Jacket 2"><path id="SKIN" fill-rule="evenodd" clip-rule="evenodd" d="M234.235 61.7042L198 77.6171L209.57 92.4393L236.707 71.6329C250.262 69.1432 256.549 67.0043 255.566 65.2163C254.738 63.7087 253.197 63.6237 251.778 63.5454C250.672 63.4844 249.64 63.4275 249.076 62.7053C247.789 61.056 250.966 55.9611 254.188 51.2552C257.41 46.5492 254.39 46.7192 252.623 47.282C246.711 50.5716 240.582 55.379 234.235 61.7042ZM72 86.0658L51.5083 82C37.6109 118.63 29.3256 138.702 26.6523 142.218C24.692 144.796 12.6026 151.437 4.41982 154.984C1.13535 156.407 1.84055 159.183 2.80388 160.071C8.88024 165.672 14.5292 163.709 20.6783 161.572C22.4585 160.953 24.2806 160.32 26.1672 159.851C31.0502 158.639 32.5361 161.15 33.9404 163.523C35.1837 165.624 36.363 167.616 39.7793 166.821C39.6239 166.151 39.433 165.4 39.227 164.589C37.8952 159.349 35.9312 151.62 38.845 147.13C40.3404 144.826 51.3921 124.471 72 86.0658Z" fill="#d4a181"/><path id="Coat Back" fill-rule="evenodd" clip-rule="evenodd" d="M127.695 5.33206L136.342 3.84889C155.176 22.119 162.862 66.0125 175.414 71.8225C187.281 77.3157 204.104 72 224.1 64.8225L230.223 78.5046C212.055 98.1606 173.349 114.767 157.66 105.287C132.576 90.1298 126.786 35.9937 127.695 5.33206Z" fill="#c5cfd6"/><path id="Shirt" fill-rule="evenodd" clip-rule="evenodd" d="M90 114C90 114 142.008 114 166.511 114C170.008 114 169.349 108.952 168.843 106.404C163.011 77.0038 140.241 45.3115 140.241 3.46073L118.172 0C99.9175 29.3584 93.6048 65.5046 90 114Z" fill="#C7D1D9"/><path id="Coat Front" fill-rule="evenodd" clip-rule="evenodd" d="M117 0H116.748C67.2466 30.5044 37.3306 77.7907 27 141.859L43.0374 145C53.6609 132.623 66.7714 112.368 82.3688 84.2332C77.5834 101.181 74.0896 118.563 73 135H141.872C155.205 101.305 125.486 0 125.486 0H120.731H117Z" fill="#f2f2f2"/></g></g></g></g></g></svg>