<svg viewBox="130.9999999999999 78.46153846153845 786.0000000000001 562.3076923076924" fill="none" xmlns="http://www.w3.org/2000/svg" xmlns:xlink="http://www.w3.org/1999/xlink" overflow="visible" width="786.0000000000001px" height="562.3076923076924px"><g id="Master/Scene/2 Characters"><g id="Background" transform="scale(1 1)"><g id="Background/Wireframe 2"><g id="Mobile3" clip-path="url(#clip0_410_561334ff9e96-037a-487c-a85d-e363a8799c7a)"><rect id="Container" x="723" y="91" width="147" height="280" rx="8" fill="#C7D1D9"/><circle id="Touch" cx="796" cy="339" r="15" fill="white"/><g id="Camera"><circle id="Lens" cx="783" cy="108" r="2" fill="white"/><rect id="Sensor" x="790" y="106" width="21" height="4" rx="2" fill="white"/></g><g id="Rows" clip-path="url(#clip1_410_561334ff9e96-037a-487c-a85d-e363a8799c7a)"><g id="Row" clip-path="url(#clip2_410_561334ff9e96-037a-487c-a85d-e363a8799c7a)"><rect id="Container_2" x="737" y="119" width="119" height="50.7647" rx="4" fill="white"/><g id="Text Stuff" clip-path="url(#clip3_410_561334ff9e96-037a-487c-a85d-e363a8799c7a)"><rect id="Label" x="746" y="134.228" width="61" height="7.614" rx="3" fill="#C7D1D9"/><rect id="Label_2" x="746" y="146.918" width="40.9452" height="7.614" rx="3" fill="#C7D1D9"/></g><g id="Check"><circle id="Background" cx="843.282" cy="144.38" r="7" fill="#C7D1D9"/><circle id="Indicator" cx="843.282" cy="144.38" r="3" fill="#F2F2F2"/></g></g><g id="Row_2" clip-path="url(#clip4_410_561334ff9e96-037a-487c-a85d-e363a8799c7a)"><rect id="Background_2" x="737" y="178" width="119" height="37.7059" rx="4" fill="white"/><g id="Text" clip-path="url(#clip5_410_561334ff9e96-037a-487c-a85d-e363a8799c7a)"><rect id="Name" x="776" y="189.314" width="61" height="5.65701" rx="2.82851" fill="#C7D1D9"/><rect id="Name_2" x="776" y="198.742" width="40.9452" height="5.65701" rx="2.82851" fill="#C7D1D9"/></g><circle id="Avatar" cx="758" cy="196.857" r="12" fill="#C5CFD6"/></g><g id="Row_3" clip-path="url(#clip6_410_561334ff9e96-037a-487c-a85d-e363a8799c7a)"><rect id="Container_3" x="737" y="224" width="119" height="37.7059" rx="4" fill="white"/><g id="Text Stuff_2" clip-path="url(#clip7_410_561334ff9e96-037a-487c-a85d-e363a8799c7a)"><rect id="Label_3" x="746" y="235.314" width="61" height="5.65701" rx="2.82851" fill="#C7D1D9"/><rect id="Label_4" x="746" y="244.742" width="40.9452" height="5.65701" rx="2.82851" fill="#C7D1D9"/></g><g id="Check_2"><circle id="Background_3" cx="843.282" cy="242.857" r="7" fill="#C7D1D9"/><circle id="Indicator_2" cx="843.282" cy="242.857" r="3" fill="#F2F2F2"/></g></g><g id="Row_4" clip-path="url(#clip8_410_561334ff9e96-037a-487c-a85d-e363a8799c7a)"><rect id="Background_4" x="737" y="270" width="119" height="37.7059" rx="4" fill="white"/><g id="Text_2" clip-path="url(#clip9_410_561334ff9e96-037a-487c-a85d-e363a8799c7a)"><rect id="Name_3" x="776" y="281.314" width="61" height="5.65701" rx="2.82851" fill="#C7D1D9"/><rect id="Name_4" x="776" y="290.742" width="40.9452" height="5.65701" rx="2.82851" fill="#C7D1D9"/></g><circle id="Avatar_2" cx="758" cy="288.857" r="12" fill="#C5CFD6"/></g></g></g><g id="Mobile3_2" clip-path="url(#clip10_410_561334ff9e96-037a-487c-a85d-e363a8799c7a)"><rect id="Container_4" x="219" y="114" width="159" height="302" rx="8" fill="#F2F2F2"/><circle id="Touch_2" cx="298" cy="382" r="15" fill="white"/><g id="Camera_2"><circle id="Lens_2" cx="285" cy="132" r="2" fill="white"/><rect id="Sensor_2" x="292" y="130" width="21" height="4" rx="2" fill="white"/></g><g id="Rows_2" clip-path="url(#clip11_410_561334ff9e96-037a-487c-a85d-e363a8799c7a)"><g id="Row_5" clip-path="url(#clip12_410_561334ff9e96-037a-487c-a85d-e363a8799c7a)"><rect id="Background_5" x="233" y="142" width="131" height="54" rx="4" fill="white"/><g id="Text_3" clip-path="url(#clip13_410_561334ff9e96-037a-487c-a85d-e363a8799c7a)"><rect id="Name_5" x="272" y="158.2" width="73" height="8.1" rx="3" fill="#C7D1D9"/><rect id="Name_6" x="272" y="171.7" width="49" height="8.1" rx="3" fill="#C7D1D9"/></g><circle id="Avatar_3" cx="254" cy="169" r="12" fill="#C5CFD6"/></g><g id="Row_6" clip-path="url(#clip14_410_561334ff9e96-037a-487c-a85d-e363a8799c7a)"><rect id="Background_6" x="233" y="204" width="131" height="42" rx="4" fill="white"/><g id="Text_4" clip-path="url(#clip15_410_561334ff9e96-037a-487c-a85d-e363a8799c7a)"><rect id="Name_7" x="272" y="216.6" width="73" height="6.3" rx="3" fill="#C7D1D9"/><rect id="Name_8" x="272" y="227.1" width="49" height="6.3" rx="3" fill="#C7D1D9"/></g><circle id="Avatar_4" cx="254" cy="225" r="12" fill="#C5CFD6"/></g><g id="Row_7" clip-path="url(#clip16_410_561334ff9e96-037a-487c-a85d-e363a8799c7a)"><rect id="Background_7" x="233" y="254" width="131" height="42" rx="4" fill="white"/><g id="Text_5" clip-path="url(#clip17_410_561334ff9e96-037a-487c-a85d-e363a8799c7a)"><rect id="Name_9" x="272" y="266.6" width="73" height="6.3" rx="3" fill="#C7D1D9"/><rect id="Name_10" x="272" y="277.1" width="49" height="6.3" rx="3" fill="#C7D1D9"/></g><circle id="Avatar_5" cx="254" cy="275" r="12" fill="#AFB9C5"/></g><g id="Row_8" clip-path="url(#clip18_410_561334ff9e96-037a-487c-a85d-e363a8799c7a)"><rect id="Background_8" x="233" y="304" width="131" height="42" rx="4" fill="white"/><g id="Text_6" clip-path="url(#clip19_410_561334ff9e96-037a-487c-a85d-e363a8799c7a)"><rect id="Name_11" x="272" y="316.6" width="73" height="6.3" rx="3" fill="#C7D1D9"/><rect id="Name_12" x="272" y="327.1" width="49" height="6.3" rx="3" fill="#C7D1D9"/></g><circle id="Avatar_6" cx="254" cy="325" r="12" fill="#C5CFD6"/></g></g></g><g id="Web" clip-path="url(#clip20_410_561334ff9e96-037a-487c-a85d-e363a8799c7a)"><rect id="Container_5" x="384" y="191" width="335" height="346" rx="8" fill="#F2F2F2"/><rect id="Background_9" x="633" y="234" width="70" height="81" rx="8" fill="white"/><g id="Profile Info"><circle id="Avatar_7" cx="668" cy="265" r="16" fill="#C7D1D9"/><rect id="Name_13" x="643" y="285" width="50" height="6" rx="3" fill="#C7D1D9"/><rect id="Name_14" x="651" y="295" width="34" height="6" rx="3" fill="#C7D1D9"/></g><path id="Header" d="M384 199C384 194.582 387.582 191 392 191H711C715.418 191 719 194.582 719 199V218H384V199Z" fill="#C5CFD6"/><g id="Buttons"><circle id="buttons" cx="397" cy="205" r="4" fill="#F2F2F2"/><circle id="buttons_2" cx="409" cy="205" r="4" fill="#F2F2F2"/><circle id="buttons_3" cx="421" cy="205" r="4" fill="#F2F2F2"/></g><g id="Components" clip-path="url(#clip21_410_561334ff9e96-037a-487c-a85d-e363a8799c7a)"><rect id="Background_10" x="633" y="323" width="70" height="194" rx="8" fill="white"/><g id="Rows_3" clip-path="url(#clip22_410_561334ff9e96-037a-487c-a85d-e363a8799c7a)"><rect id="Data" x="651" y="341" width="34" height="26" rx="4" fill="#C7D1D9"/><rect id="Data_2" x="651" y="375" width="34" height="25" rx="4" fill="#AFB9C5"/><rect id="Data_3" x="651" y="408" width="34" height="25" rx="4" fill="#C7D1D9"/><rect id="Data_4" x="651" y="474" width="34" height="25" rx="4" fill="#C7D1D9"/><rect id="Data_5" x="651" y="441" width="34" height="25" rx="4" fill="#C5CFD6"/></g></g><g id="Rows_4" clip-path="url(#clip23_410_561334ff9e96-037a-487c-a85d-e363a8799c7a)"><g id="Row_9" clip-path="url(#clip24_410_561334ff9e96-037a-487c-a85d-e363a8799c7a)"><rect id="Container_6" x="400" y="235" width="225" height="47" rx="4" fill="white"/><g id="Text Stuff_3" clip-path="url(#clip25_410_561334ff9e96-037a-487c-a85d-e363a8799c7a)"><rect id="Label_5" x="409" y="249.1" width="167" height="7.05" rx="3" fill="#C7D1D9"/><rect id="Label_6" x="409" y="260.85" width="112.096" height="7.05" rx="3" fill="#C7D1D9"/></g><g id="Check_3"><circle id="Background_11" cx="600.954" cy="258.5" r="7" fill="#C7D1D9"/><circle id="Indicator_3" cx="600.954" cy="258.5" r="3" fill="#F2F2F2"/></g></g><g id="Row_10" clip-path="url(#clip26_410_561334ff9e96-037a-487c-a85d-e363a8799c7a)"><rect id="Container_7" x="400" y="290" width="225" height="39" rx="4" fill="white"/><g id="Text Stuff_4" clip-path="url(#clip27_410_561334ff9e96-037a-487c-a85d-e363a8799c7a)"><rect id="Label_7" x="409" y="301.7" width="167" height="5.85" rx="2.925" fill="#C7D1D9"/><rect id="Label_8" x="409" y="311.45" width="112.096" height="5.85" rx="2.925" fill="#C7D1D9"/></g><g id="Check_4"><circle id="Background_12" cx="600.954" cy="309.5" r="7" fill="#C7D1D9"/><circle id="Indicator_4" cx="600.954" cy="309.5" r="3" fill="#F2F2F2"/></g></g><g id="Row_11" clip-path="url(#clip28_410_561334ff9e96-037a-487c-a85d-e363a8799c7a)"><rect id="Container_8" x="400" y="337" width="225" height="39" rx="4" fill="white"/><g id="Text Stuff_5" clip-path="url(#clip29_410_561334ff9e96-037a-487c-a85d-e363a8799c7a)"><rect id="Label_9" x="409" y="348.7" width="167" height="5.85" rx="2.925" fill="#C7D1D9"/><rect id="Label_10" x="409" y="358.45" width="112.096" height="5.85" rx="2.925" fill="#C7D1D9"/></g><g id="Check_5"><circle id="Background_13" cx="600.954" cy="356.5" r="7" fill="#C7D1D9"/><circle id="Indicator_5" cx="600.954" cy="356.5" r="3" fill="#AFB9C5"/></g></g><g id="Row_12" clip-path="url(#clip30_410_561334ff9e96-037a-487c-a85d-e363a8799c7a)"><rect id="Container_9" x="400" y="478" width="225" height="39" rx="4" fill="white"/><g id="Text Stuff_6" clip-path="url(#clip31_410_561334ff9e96-037a-487c-a85d-e363a8799c7a)"><rect id="Label_11" x="409" y="489.7" width="167" height="5.85" rx="2.925" fill="#C7D1D9"/><rect id="Label_12" x="409" y="499.45" width="112.096" height="5.85" rx="2.925" fill="#C7D1D9"/></g><g id="Check_6"><circle id="Background_14" cx="600.954" cy="497.5" r="7" fill="#C7D1D9"/><circle id="Indicator_6" cx="600.954" cy="497.5" r="3" fill="#F2F2F2"/></g></g><g id="Row_13" clip-path="url(#clip32_410_561334ff9e96-037a-487c-a85d-e363a8799c7a)"><rect id="Container_10" x="400" y="431" width="225" height="39" rx="4" fill="white"/><g id="Text Stuff_7" clip-path="url(#clip33_410_561334ff9e96-037a-487c-a85d-e363a8799c7a)"><rect id="Label_13" x="409" y="442.7" width="167" height="5.85" rx="2.925" fill="#C7D1D9"/><rect id="Label_14" x="409" y="452.45" width="112.096" height="5.85" rx="2.925" fill="#C7D1D9"/></g><g id="Check_7"><circle id="Background_15" cx="600.954" cy="450.5" r="7" fill="#C7D1D9"/><circle id="Indicator_7" cx="600.954" cy="450.5" r="3" fill="#F2F2F2"/></g></g><g id="Row_14" clip-path="url(#clip34_410_561334ff9e96-037a-487c-a85d-e363a8799c7a)"><rect id="Container_11" x="400" y="384" width="225" height="39" rx="4" fill="white"/><g id="Text Stuff_8" clip-path="url(#clip35_410_561334ff9e96-037a-487c-a85d-e363a8799c7a)"><rect id="Label_15" x="409" y="395.7" width="167" height="5.85" rx="2.925" fill="#C7D1D9"/><rect id="Label_16" x="409" y="405.45" width="112.096" height="5.85" rx="2.925" fill="#C7D1D9"/></g><g id="Check_8"><circle id="Background_16" cx="600.954" cy="403.5" r="7" fill="#C7D1D9"/><circle id="Indicator_8" cx="600.954" cy="403.5" r="3" fill="#F2F2F2"/></g></g></g></g><g id="Graph"><rect id="Value" x="520" y="146" width="6" height="25" rx="3" fill="#C7D1D9"/><rect id="Value_2" x="534" y="130" width="6" height="41" rx="3" fill="#C7D1D9"/><rect id="Value_3" x="548" y="122" width="6" height="49" rx="3" fill="#C7D1D9"/><rect id="Value_4" x="562" y="130" width="6" height="41" rx="3" fill="#C7D1D9"/><rect id="Value_5" x="576" y="114" width="6" height="57" rx="3" fill="#C5CFD6"/></g><g id="Chart"><path id="Value_6" fill-rule="evenodd" clip-rule="evenodd" d="M838.766 504.179C836.845 506.219 834.123 507.5 831.095 507.5C825.278 507.5 820.562 502.799 820.562 497C820.562 491.201 825.278 486.5 831.095 486.5V467C814.546 467 801 480.503 801 497C801 513.497 814.546 527 831.095 527C839.788 527 847.645 523.334 853 517.502L838.766 504.179Z" fill="#F2F2F2"/><path id="Value_7" fill-rule="evenodd" clip-rule="evenodd" d="M831 467V486.5C836.799 486.5 841.5 491.201 841.5 497H861C861 480.503 847.497 467 831 467Z" fill="#AFB9C5"/><path id="Value_8" fill-rule="evenodd" clip-rule="evenodd" d="M841.097 497C841.097 500.407 839.492 503.435 837 505.391L849.262 521C856.399 515.412 861 506.749 861 497H841.097Z" fill="#C5CFD6"/></g><g id="Chart_2"><path id="Value_9" fill-rule="evenodd" clip-rule="evenodd" d="M170.051 259.504C168.573 261.068 166.479 262.05 164.15 262.05C159.675 262.05 156.048 258.446 156.048 254C156.048 249.554 159.675 245.95 164.15 245.95V231C151.42 231 141 241.352 141 254C141 266.648 151.42 277 164.15 277C170.837 277 176.88 274.189 181 269.718L170.051 259.504Z" fill="#F2F2F2"/><path id="Value_10" fill-rule="evenodd" clip-rule="evenodd" d="M164 231V245.95C168.446 245.95 172.05 249.554 172.05 254H187C187 241.352 176.648 231 164 231Z" fill="#AFB9C5"/><path id="Value_11" fill-rule="evenodd" clip-rule="evenodd" d="M172.073 254C172.073 256.555 170.869 258.827 169 260.293L178.196 272C183.55 267.809 187 261.312 187 254H172.073Z" fill="#C5CFD6"/></g><g id="Image"><path id="Fill 35" fill-rule="evenodd" clip-rule="evenodd" d="M866.007 240.986C866.003 240.996 865.999 241.006 865.993 241.018C865.999 241.008 866.007 240.968 866.007 240.986" fill="#C5CFD6"/><path id="Fill 37" fill-rule="evenodd" clip-rule="evenodd" d="M865.998 241.001C865.998 241.003 865.996 241.007 865.996 241.011C865.996 241.001 866.014 240.971 865.998 241.001" fill="#C5CFD6"/><path id="Fill 39" fill-rule="evenodd" clip-rule="evenodd" d="M866.067 240.832C866.053 240.872 866.035 240.91 866.019 240.95C866.027 240.93 866.035 240.914 866.043 240.894C865.835 241.414 865.967 241.076 866.067 240.832" fill="#C5CFD6"/><path id="Fill 41" fill-rule="evenodd" clip-rule="evenodd" d="M866.022 240.953C866.014 240.971 866.006 240.991 865.998 241.009C865.94 241.121 866.022 240.953 866.022 240.953" fill="#C5CFD6"/><path id="Fill 45" fill-rule="evenodd" clip-rule="evenodd" d="M865.999 241.002C865.999 241 865.999 241 866.001 240.998C865.999 241 865.999 241 865.999 241.002" fill="#C5CFD6"/><path id="Fill 47" fill-rule="evenodd" clip-rule="evenodd" d="M865.99 241.016C865.978 241.04 866.046 240.924 865.99 241.016Z" fill="#C5CFD6"/><path id="Fill 49" fill-rule="evenodd" clip-rule="evenodd" d="M865.998 241.002L866.002 240.998C866 241 866 241.002 865.998 241.002" fill="#C5CFD6"/><rect id="Photo Background" x="818" y="189" width="95" height="63" rx="4" fill="#C5CFD6"/><path id="Mountains" fill-rule="evenodd" clip-rule="evenodd" d="M854 207L826 252H882L854 207Z" fill="#AFB9C5"/><path id="Mountains_2" fill-rule="evenodd" clip-rule="evenodd" d="M881.5 219L857 252H906L881.5 219Z" fill="#AFB9C5"/><circle id="Sun" cx="892" cy="210" r="9" fill="white"/></g><g id="Image_2"><path id="Fill 35_2" fill-rule="evenodd" clip-rule="evenodd" d="M218.993 556.986C218.997 556.996 219.001 557.006 219.007 557.018C219.001 557.008 218.993 556.968 218.993 556.986" fill="#C5CFD6"/><path id="Fill 37_2" fill-rule="evenodd" clip-rule="evenodd" d="M219.002 557.001C219.002 557.003 219.004 557.007 219.004 557.011C219.004 557.001 218.986 556.971 219.002 557.001" fill="#C5CFD6"/><path id="Fill 39_2" fill-rule="evenodd" clip-rule="evenodd" d="M218.933 556.832C218.947 556.872 218.965 556.91 218.981 556.95C218.973 556.93 218.965 556.914 218.957 556.894C219.165 557.414 219.033 557.076 218.933 556.832" fill="#C5CFD6"/><path id="Fill 41_2" fill-rule="evenodd" clip-rule="evenodd" d="M218.978 556.953C218.986 556.971 218.994 556.991 219.002 557.009C219.06 557.121 218.978 556.953 218.978 556.953" fill="#C5CFD6"/><path id="Fill 45_2" fill-rule="evenodd" clip-rule="evenodd" d="M219.001 557.002C219.001 557 219.001 557 218.999 556.998C219.001 557 219.001 557 219.001 557.002" fill="#C5CFD6"/><path id="Fill 47_2" fill-rule="evenodd" clip-rule="evenodd" d="M219.01 557.016C219.022 557.04 218.954 556.924 219.01 557.016Z" fill="#C5CFD6"/><path id="Fill 49_2" fill-rule="evenodd" clip-rule="evenodd" d="M219.002 557.002L218.998 556.998C219 557 219 557.002 219.002 557.002" fill="#C5CFD6"/><rect id="Photo Background_2" width="142" height="94" rx="4" transform="matrix(-1 0 0 1 290 480)" fill="#C7D1D9"/><path id="Mountains_3" fill-rule="evenodd" clip-rule="evenodd" d="M237.274 507L278.329 574H196.219L237.274 507Z" fill="#AFB9C5"/><path id="Mountains_4" fill-rule="evenodd" clip-rule="evenodd" d="M194.944 524.947L231.239 574H158.649L194.944 524.947Z" fill="#C5CFD6"/><circle id="Sun_2" cx="13.5" cy="13.5" r="13.5" transform="matrix(-1 0 0 1 193 498)" fill="white"/></g></g><defs><clipPath id="clip0_410_561334ff9e96-037a-487c-a85d-e363a8799c7a"><rect width="147" height="280" fill="white" transform="translate(723 91)"/></clipPath><clipPath id="clip1_410_561334ff9e96-037a-487c-a85d-e363a8799c7a"><rect width="119" height="189" fill="white" transform="translate(737 119)"/></clipPath><clipPath id="clip2_410_561334ff9e96-037a-487c-a85d-e363a8799c7a"><rect width="119" height="51" fill="white" transform="translate(737 119)"/></clipPath><clipPath id="clip3_410_561334ff9e96-037a-487c-a85d-e363a8799c7a"><rect width="61" height="20.4" fill="white" transform="translate(746 134.228)"/></clipPath><clipPath id="clip4_410_561334ff9e96-037a-487c-a85d-e363a8799c7a"><rect width="119" height="38" fill="white" transform="translate(737 178)"/></clipPath><clipPath id="clip5_410_561334ff9e96-037a-487c-a85d-e363a8799c7a"><rect width="61" height="15.5897" fill="white" transform="translate(776 189.314)"/></clipPath><clipPath id="clip6_410_561334ff9e96-037a-487c-a85d-e363a8799c7a"><rect width="119" height="38" fill="white" transform="translate(737 224)"/></clipPath><clipPath id="clip7_410_561334ff9e96-037a-487c-a85d-e363a8799c7a"><rect width="61" height="15.5897" fill="white" transform="translate(746 235.314)"/></clipPath><clipPath id="clip8_410_561334ff9e96-037a-487c-a85d-e363a8799c7a"><rect width="119" height="38" fill="white" transform="translate(737 270)"/></clipPath><clipPath id="clip9_410_561334ff9e96-037a-487c-a85d-e363a8799c7a"><rect width="61" height="15.5897" fill="white" transform="translate(776 281.314)"/></clipPath><clipPath id="clip10_410_561334ff9e96-037a-487c-a85d-e363a8799c7a"><rect width="159" height="302" fill="white" transform="translate(219 114)"/></clipPath><clipPath id="clip11_410_561334ff9e96-037a-487c-a85d-e363a8799c7a"><rect width="131" height="204" fill="white" transform="translate(233 142)"/></clipPath><clipPath id="clip12_410_561334ff9e96-037a-487c-a85d-e363a8799c7a"><rect width="131" height="54" fill="white" transform="translate(233 142)"/></clipPath><clipPath id="clip13_410_561334ff9e96-037a-487c-a85d-e363a8799c7a"><rect width="73" height="21.6" fill="white" transform="translate(272 158.2)"/></clipPath><clipPath id="clip14_410_561334ff9e96-037a-487c-a85d-e363a8799c7a"><rect width="131" height="42" fill="white" transform="translate(233 204)"/></clipPath><clipPath id="clip15_410_561334ff9e96-037a-487c-a85d-e363a8799c7a"><rect width="73" height="16.8" fill="white" transform="translate(272 216.6)"/></clipPath><clipPath id="clip16_410_561334ff9e96-037a-487c-a85d-e363a8799c7a"><rect width="131" height="42" fill="white" transform="translate(233 254)"/></clipPath><clipPath id="clip17_410_561334ff9e96-037a-487c-a85d-e363a8799c7a"><rect width="73" height="16.8" fill="white" transform="translate(272 266.6)"/></clipPath><clipPath id="clip18_410_561334ff9e96-037a-487c-a85d-e363a8799c7a"><rect width="131" height="42" fill="white" transform="translate(233 304)"/></clipPath><clipPath id="clip19_410_561334ff9e96-037a-487c-a85d-e363a8799c7a"><rect width="73" height="16.8" fill="white" transform="translate(272 316.6)"/></clipPath><clipPath id="clip20_410_561334ff9e96-037a-487c-a85d-e363a8799c7a"><rect width="335" height="346" fill="white" transform="translate(384 191)"/></clipPath><clipPath id="clip21_410_561334ff9e96-037a-487c-a85d-e363a8799c7a"><rect width="70" height="194" fill="white" transform="translate(633 323)"/></clipPath><clipPath id="clip22_410_561334ff9e96-037a-487c-a85d-e363a8799c7a"><rect width="34" height="158" fill="white" transform="translate(651 341)"/></clipPath><clipPath id="clip23_410_561334ff9e96-037a-487c-a85d-e363a8799c7a"><rect width="225" height="282" fill="white" transform="translate(400 235)"/></clipPath><clipPath id="clip24_410_561334ff9e96-037a-487c-a85d-e363a8799c7a"><rect width="225" height="47" fill="white" transform="translate(400 235)"/></clipPath><clipPath id="clip25_410_561334ff9e96-037a-487c-a85d-e363a8799c7a"><rect width="167" height="18.8" fill="white" transform="translate(409 249.1)"/></clipPath><clipPath id="clip26_410_561334ff9e96-037a-487c-a85d-e363a8799c7a"><rect width="225" height="39" fill="white" transform="translate(400 290)"/></clipPath><clipPath id="clip27_410_561334ff9e96-037a-487c-a85d-e363a8799c7a"><rect width="167" height="15.6" fill="white" transform="translate(409 301.7)"/></clipPath><clipPath id="clip28_410_561334ff9e96-037a-487c-a85d-e363a8799c7a"><rect width="225" height="39" fill="white" transform="translate(400 337)"/></clipPath><clipPath id="clip29_410_561334ff9e96-037a-487c-a85d-e363a8799c7a"><rect width="167" height="15.6" fill="white" transform="translate(409 348.7)"/></clipPath><clipPath id="clip30_410_561334ff9e96-037a-487c-a85d-e363a8799c7a"><rect width="225" height="39" fill="white" transform="translate(400 478)"/></clipPath><clipPath id="clip31_410_561334ff9e96-037a-487c-a85d-e363a8799c7a"><rect width="167" height="15.6" fill="white" transform="translate(409 489.7)"/></clipPath><clipPath id="clip32_410_561334ff9e96-037a-487c-a85d-e363a8799c7a"><rect width="225" height="39" fill="white" transform="translate(400 431)"/></clipPath><clipPath id="clip33_410_561334ff9e96-037a-487c-a85d-e363a8799c7a"><rect width="167" height="15.6" fill="white" transform="translate(409 442.7)"/></clipPath><clipPath id="clip34_410_561334ff9e96-037a-487c-a85d-e363a8799c7a"><rect width="225" height="39" fill="white" transform="translate(400 384)"/></clipPath><clipPath id="clip35_410_561334ff9e96-037a-487c-a85d-e363a8799c7a"><rect width="167" height="15.6" fill="white" transform="translate(409 395.7)"/></clipPath></defs></g><g id="Master/Pose/Standing" transform="matrix(-1 0 0 1 802 214) scale(1 1)"><g id="Master/Pose/Standing"><g id="Head/Front" transform="translate(82 0) scale(1 1)"><g id="Head/Front/Long"><path id="Hair Back" fill-rule="evenodd" clip-rule="evenodd" d="M72.5 27C60.6259 27 51 36.6259 51 48.5V69.5C51 80.5658 59.3599 89.679 70.1086 90.8685C70.1114 90.9197 70.1143 90.971 70.1173 91.0225H99.1173C103.701 86.5438 99.209 57.9923 95.762 45.2902C94.2125 34.9385 85.2833 27 74.5 27H72.5Z" fill="#4a312c"/><g id="Head"><path id="SKIN" fill-rule="evenodd" clip-rule="evenodd" d="M73.9354 75.2443C80.411 79.1475 86.7736 81.0333 89.7603 80.2635C97.2496 78.333 97.9382 50.9351 92.1433 40.1339C86.3485 29.3328 56.5583 24.625 55.0568 46.0255C54.5356 53.4529 57.6544 60.0814 62.2623 65.4901L54 104H78L73.9354 75.2443Z" fill="#dcae92"/></g><path id="Hair Front" fill-rule="evenodd" clip-rule="evenodd" d="M51.8812 46.1504C52.578 45.4614 53.2522 44.7947 53.9211 44.1981L53.8889 43.4207C53.8889 43.4207 61.4214 28 73.0014 28C84.5711 28 88.23 33.3787 91.3403 37.9508L91.3487 37.9631C89.7218 43.5452 84.8187 45.8037 79.2736 48.3579C76.8866 49.4574 74.3806 50.6117 71.9657 52.1095C71.0199 51.341 69.8137 50.8804 68.5 50.8804C65.4624 50.8804 63 53.3428 63 56.3804C63 59.418 65.4624 61.8804 68.5 61.8804C68.5838 61.8804 68.6671 61.8785 68.75 61.8748C69.8557 73.7528 69.4127 87.3173 66.1173 90.5371H37.1173C36.2848 76.0731 40.0264 71.947 43.8498 67.7307C47.4474 63.7635 51.1173 59.7166 51.1173 46.9028C51.3754 46.6506 51.6298 46.3991 51.8812 46.1505L51.8812 46.1504Z" fill="#4a312c"/></g></g><g id="Lower Body/Standing" transform="translate(0 187) scale(1 1)"><g id="Lower Body/Standing/Baggy Pants"><path id="SKIN" fill-rule="evenodd" clip-rule="evenodd" d="M134 0L183.082 124.227L216.001 229.25H229L176.674 0L134 0Z" fill="#dcae92"/><path id="SKIN" fill-rule="evenodd" clip-rule="evenodd" d="M124.117 0C123.594 43.6542 115.972 102.427 114.754 105.149C113.536 107.87 30.6758 174.358 30.6758 174.358L39.629 183.939C39.629 183.939 137.397 126.934 141.921 119.331C146.445 111.728 161.174 41.7631 173 0H124.117Z" fill="#dcae92"/><g id="Left [Shoe]"><path id="shoe" fill-rule="evenodd" clip-rule="evenodd" d="M32.116 172.564C31.7884 171.44 30.604 170.771 29.5042 171.173C27.4981 171.906 24.5641 173.092 23.2642 174.183C21.1921 175.922 17.7961 179.948 17.7961 179.948C19.8131 182.352 54.0505 223.154 54.0505 223.154C54.0505 223.154 61.0315 220.166 58.4307 216.165C55.8299 212.164 54.1738 209.464 54.1738 209.464L46.2757 181.87C46.1206 181.328 45.549 181.022 45.012 181.192L40.7975 182.529C40.7975 182.529 36.4116 180.485 34.6494 178.384C33.5766 177.106 32.665 174.448 32.116 172.564Z" fill="#E4E4E4"/></g><g id="Right {Shoe]"><path id="shoe_2" fill-rule="evenodd" clip-rule="evenodd" d="M213.45 223.284C212.378 222.813 211.104 223.29 210.705 224.391C209.977 226.398 209 229.409 209 231.106C209 233.811 209.901 239 209.901 239C213.039 239 266.303 239 266.303 239C266.303 239 268.502 231.732 263.765 231.152C259.028 230.573 255.895 230.106 255.895 230.106L229.68 218.419C229.165 218.189 228.563 218.43 228.348 218.951L226.663 223.039C226.663 223.039 222.278 225.085 219.537 225.085C217.868 225.085 215.246 224.074 213.45 223.284Z" fill="#E4E4E4"/></g><path id="Pant" fill-rule="evenodd" clip-rule="evenodd" d="M167 218.433L228.804 211.725L179 0H127.644L167 218.433Z" fill="#2a0752"/><path id="Pant" fill-rule="evenodd" clip-rule="evenodd" d="M43.46 158.9L84 206.886C84 206.886 148.05 136.932 158.683 115.596C169.315 94.26 177.799 0 177.799 0H115.478C115.478 0 110.844 82.9258 109.231 86.7848C107.617 90.6437 43.46 158.9 43.46 158.9Z" fill="#342a83"/></g></g><g id="Upper Body" transform="translate(22 82) scale(1 1)"><g id="Upper Body/Pointing Forward"><path id="SKIN" fill-rule="evenodd" clip-rule="evenodd" d="M193.348 23.6899L158.638 42.7003L171.456 56.4577L196.677 33.3653C209.963 29.7037 216.039 27.0251 214.904 25.3294C213.948 23.8997 212.405 23.9494 210.985 23.9951C209.878 24.0307 208.845 24.064 208.22 23.3937C206.794 21.8628 209.515 16.5104 212.315 11.5416C215.114 6.57269 212.121 7.00525 210.409 7.7199C204.807 11.5123 199.12 16.8356 193.348 23.6899ZM228.246 50.3643L213 58.7399L213.868 74.0403C213.868 74.0403 223.743 66.9131 232.238 64.5444C243.07 61.5241 247.453 59.2177 252.746 52.4731C255.578 48.8645 257.982 41.6102 255.286 39.2477C254.252 38.3414 250.399 40.4824 246.468 42.667C243.472 44.3319 240.43 46.022 238.556 46.4078C236.034 46.9272 236.329 43.6574 236.565 41.0446C236.734 39.1697 236.873 37.633 235.918 38.0773C231.455 38.1538 228.246 50.3643 228.246 50.3643Z" fill="#cccccc"/><g id="Group 3"><path id="Mask" fill-rule="evenodd" clip-rule="evenodd" d="M141.734 38.4654C153.892 38.337 170.104 35.7692 187.403 24.7888L194.196 39.9387C182.264 51.7804 165.486 61.5097 150.816 61.0977C139.255 60.7731 133.347 46.7892 141.734 38.4654Z" fill="#c5cfd6"/><mask id="mask0_410_5849f12fc37b-e2bd-4312-a182-d9076f6ed1df" style="mask-type:luminance" maskUnits="userSpaceOnUse" x="137" y="24" width="58" height="38" fill="#ffffff"><path id="Mask" fill-rule="evenodd" clip-rule="evenodd" d="M141.734 38.4654C153.892 38.337 170.104 35.7692 187.403 24.7888L194.196 39.9387C182.264 51.7804 165.486 61.5097 150.816 61.0977C139.255 60.7731 133.347 46.7892 141.734 38.4654Z" fill="#ffffff"/></mask><g mask="url(#mask0_410_5849f12fc37b-e2bd-4312-a182-d9076f6ed1df)"/></g><g id="Group 27"><path id="Mask" fill-rule="evenodd" clip-rule="evenodd" d="M108.945 142.259C97.3866 140.752 86.7664 139.367 80.4728 140.606C73.4113 117.673 79.2749 103.234 84.6879 89.9046C87.9502 81.871 91.0489 74.2405 91.0555 65.3966C91.0748 39.6422 111.754 0 114.797 0H115.67H139.783H142.544C143.784 15.9374 149.079 33.193 154.407 50.5596C155.652 54.6153 156.898 58.6769 158.095 62.7293C178.26 67.3065 223.036 51.3734 223.036 51.3734C223.036 51.3734 234.34 74.7586 233.487 84.7171C207.424 98.331 185.087 104.401 166.683 104.802C167.268 115.721 165.939 126.112 161.474 135.606C155.491 148.327 130.576 145.079 108.945 142.259Z" fill="#f2f2f2"/><mask id="mask1_410_5849f12fc37b-e2bd-4312-a182-d9076f6ed1df" style="mask-type:luminance" maskUnits="userSpaceOnUse" x="77" y="0" width="157" height="145" fill="#ffffff"><path id="Mask_2" fill-rule="evenodd" clip-rule="evenodd" d="M108.945 142.259C97.3866 140.752 86.7664 139.367 80.4728 140.606C73.4113 117.673 79.2749 103.234 84.6879 89.9046C87.9502 81.871 91.0489 74.2405 91.0555 65.3966C91.0748 39.6422 111.754 0 114.797 0H115.67H139.783H142.544C143.784 15.9374 149.079 33.193 154.407 50.5596C155.652 54.6153 156.898 58.6769 158.095 62.7293C178.26 67.3065 223.036 51.3734 223.036 51.3734C223.036 51.3734 234.34 74.7586 233.487 84.7171C207.424 98.331 185.087 104.401 166.683 104.802C167.268 115.721 165.939 126.112 161.474 135.606C155.491 148.327 130.576 145.079 108.945 142.259Z" fill="#ffffff"/></mask><g mask="url(#mask1_410_5849f12fc37b-e2bd-4312-a182-d9076f6ed1df)"/></g></g></g></g></g><g id="Master/Pose/Standing" transform="translate(246 214) scale(1 1)"><g id="Master/Pose/Standing"><g id="Head/Front" transform="translate(82 0) scale(1 1)"><g id="Head/Front/Short Beard"><g id="Head"><path id="SKIN" fill-rule="evenodd" clip-rule="evenodd" d="M73.9354 75.2443C80.411 79.1475 86.7736 81.0333 89.7603 80.2635C97.2496 78.333 97.9382 50.9351 92.1433 40.1339C86.3485 29.3328 56.5583 24.625 55.0568 46.0255C54.5356 53.4529 57.6544 60.0814 62.2623 65.4901L54 104H78L73.9354 75.2443Z" fill="#dcae92"/></g><path id="Hair" fill-rule="evenodd" clip-rule="evenodd" d="M71.7199 51.0426C71.4839 51.0144 71.2437 50.9999 71.0001 50.9999C67.6864 50.9999 65.0001 53.6862 65.0001 56.9999C65.0001 58.6821 65.6924 60.2026 66.8076 61.2921C65.4193 63.2517 63.8634 65.2988 62.0805 67.4111C55.3825 63.3926 49.4122 50.6289 55.9606 39.3282C57.7706 33.7921 62.8681 31.8351 67.7075 30.4621C71.6276 28.8223 75.697 28.6374 79.1322 29.6205C85.8661 30.198 91.8791 32.2514 93.5833 33.4708C93.5833 39.8461 92.348 41.7376 81.7969 41.5708C79.2043 42.94 77.2113 45.2978 75.1354 48.3888C75.1527 48.626 76.5501 67.5846 82.4259 67.5846C85.9827 67.5846 89.2152 66.2263 91.7912 65.1439C93.4976 64.4269 94.9159 63.8309 95.9497 63.8309C97.8409 63.8309 97.4187 66.1976 96.1651 67.9524C95.7677 68.5086 94.7795 69.0571 93.7132 69.6489C92.004 70.5976 90.094 71.6578 90.094 73.0399C90.094 74.3079 91.3641 74.3054 92.4692 74.3032C93.3203 74.3015 94.0735 74.3 94.0735 74.8791C94.0735 75.1563 94.0846 75.4642 94.0963 75.7907C94.1779 78.0577 94.2918 81.2209 90.9513 81.2209C87.0838 81.2209 75.9949 79.8115 74.0945 74.0714C72.4826 69.2025 71.8691 55.1856 71.7199 51.0426Z" fill="#2c1b18"/></g></g><g id="Lower Body/Standing" transform="translate(0 187) scale(1 1)"><g id="Lower Body/Standing/Skinny Jeans Walk"><path id="Leg" fill-rule="evenodd" clip-rule="evenodd" d="M128 0L176.082 127.227L209.783 221H229L182.674 0L128 0Z" fill="#191847"/><path id="Leg" fill-rule="evenodd" clip-rule="evenodd" d="M116.117 0C115.594 43.6542 115.972 102.427 114.754 105.149C113.536 107.87 39 167.157 39 167.157L48.905 184C48.905 184 137.397 126.934 141.921 119.331C146.445 111.728 169.174 41.7631 181 0H116.117Z" fill="#393f82"/><path id="Shoe" fill-rule="evenodd" clip-rule="evenodd" d="M21.5742 178.491L38.3039 165.759L51.8025 181.846C53.3599 200.037 63.8484 222.649 63.8484 222.649L60.7842 225.22L36.3583 196.11L29.5342 184.866L28.0021 186.152L21.5742 178.491Z" fill="#191847"/><path id="Shoe_2" fill-rule="evenodd" clip-rule="evenodd" d="M208 239L209 218L230 218C244.936 228.5 269 235 269 235V239H231L218 237V239H208Z" fill="#191847"/></g></g><g id="Upper Body" transform="translate(22 82) scale(1 1)"><g id="Upper Body/Hoodie"><path id="SKIN" fill-rule="evenodd" clip-rule="evenodd" d="M222.68 115.635L190.781 92.2115L183.73 109.642L215.318 122.741C224.251 133.235 229.246 137.61 230.304 135.865C231.195 134.394 230.499 133.017 229.857 131.749C229.357 130.76 228.89 129.838 229.233 128.989C230.018 127.049 236.019 127.254 241.705 127.691C247.392 128.128 245.735 125.598 244.364 124.349C238.559 120.874 231.331 117.97 222.68 115.635ZM55.398 156.908C58.3285 150.963 68.308 93.0199 68.308 93.0199L89.2054 93.1021C89.2054 93.1021 69.8506 155.583 68.308 159.406C66.3041 164.372 69.708 171.587 72.0162 176.48C72.3733 177.237 72.7041 177.938 72.9847 178.567C69.782 180 68.2435 178.268 66.6216 176.442C64.7896 174.379 62.8512 172.197 58.288 174.319C56.525 175.14 54.8568 176.109 53.2269 177.057C47.5969 180.329 42.4249 183.336 35.3891 178.994C34.2737 178.306 33.0514 175.715 36.0047 173.69C43.3624 168.645 53.9654 159.815 55.398 156.908Z" fill="#dcae92"/><path id="Coat Back" fill-rule="evenodd" clip-rule="evenodd" d="M127.695 5.33203L136.342 3.84886C168.425 31.5643 181.603 84.8089 220.929 113.015L211.464 124.748C143.24 116.3 126.33 51.3548 127.695 5.33203Z" fill="#c5cfd6"/><path id="Shirt" fill-rule="evenodd" clip-rule="evenodd" d="M90 114C90 114 142.008 114 166.511 114C170.008 114 169.349 108.952 168.843 106.404C163.011 77.0038 140.241 45.3115 140.241 3.46073L118.172 0C99.9175 29.3584 93.6048 65.5046 90 114Z" fill="#C7D1D9"/><path id="Coat Front" fill-rule="evenodd" clip-rule="evenodd" d="M81.3968 135C77.9582 143.259 74.5862 150.465 71.4089 156H54.9999C53.2345 98.9186 74.8454 54.9964 92.9315 28.5129C88.9158 28.2259 85.2911 26.5455 82.9999 22.4112C74.9335 7.85608 77.8467 -0.157593 86.4671 -2.79173C91.2074 -4.24021 95.6656 -3.25154 101.002 -2.06804C105.369 -1.09961 110.325 -0.000719281 116.504 2.76336e-08C116.506 2.76336e-08 116.508 2.76336e-08 116.51 2.76336e-08C117.109 2.76336e-08 117.654 0.0401216 118.148 0.116866L125.472 0.53474C125.472 0.53474 155.205 101.305 141.872 135H81.3968Z" fill="#f2f2f2"/><path id="Shade" fill-rule="evenodd" clip-rule="evenodd" d="M81.397 135C85.9087 124.164 90.5352 111.516 94.9874 98.4544C96.6448 112.839 99.4048 127.286 104 135H81.397Z" fill="black" fill-opacity="0.1"/></g></g></g></g></g></svg>