<svg xmlns="http://www.w3.org/2000/svg" xml:space="preserve" width="1500" height="148" data-id="lg_70GX2DiNKqpfzVfJvx" data-version="1" viewBox="0 0 1500 148"><g data-padding="20"><g transform="translate(10 2.648)scale(.96422)"><path fill="#6472c4" d="M568.199.135a73.865 73.865 0 1 0 0 147.73 73.865 73.865 0 1 0 0-147.73"/><rect width="555.61" height="88.14" x="172.772" y="-425.998" fill="none" rx="0" ry="0" transform="matrix(.83 0 0 .83 448.63 424.55)"/><path d="M620.255 127.885h-11.006q.448-.124.58-1.004.134-.872-.58-2.814-.257-.714-1.195-2.913-.946-2.2-2.266-5.337-1.328-3.146-2.822-6.64-1.485-3.494-2.913-6.798-1.42-3.303-2.49-5.826-1.07-2.524-1.585-3.628-.847-2.066-1.818-2.946-.971-.871-1.486-.938h11.72q-.457.066-.548.971-.1.913.614 3.046.324.839 1.063 2.98.747 2.133 1.85 5.08 1.096 2.946 2.324 6.34 1.237 3.404 2.532 6.865 1.295 3.47 2.39 6.574h.133q1.038-2.98 2.167-6.375 1.137-3.403 2.232-6.798 1.104-3.403 2.075-6.35t1.685-5.145q.706-2.2.97-3.17.582-2.134.449-3.047-.124-.904-.448-.97h12.359q-.382 0-.515.912-.132.905.515 3.17l.946 2.98q.672 2.134 1.643 5.08.972 2.947 2.109 6.341 1.129 3.403 2.266 6.864 1.128 3.461 2.166 6.508h.133q1.162-3.105 2.456-6.54 1.295-3.429 2.557-6.832l2.365-6.374q1.105-2.98 1.876-5.113.78-2.141 1.038-2.98.713-2.2.547-3.104-.157-.913-.547-.913h11.72q-.457.067-1.295 1.004-.847.938-1.943 3.013-.523.971-1.618 3.337-1.104 2.357-2.523 5.536-1.428 3.17-2.914 6.565-1.494 3.403-2.855 6.54-1.353 3.138-2.29 5.504-.947 2.365-1.27 3.336-.648 2.133-.515 3.038.133.913.514.971h-11.005q.39-.058.522-.971.125-.905-.522-3.038-.258-.846-.972-3.013-.705-2.166-1.743-5.179-1.037-3.013-2.265-6.474t-2.466-6.988q-1.228-3.528-2.324-6.707h-.132q-1.104 3.179-2.333 6.707t-2.423 7.021q-1.204 3.495-2.233 6.508-1.037 3.012-1.718 5.146-.68 2.133-.938 2.98-.58 2.066-.456 3.004.132.946.456 1.004m86.752 0h-37.808q.448 0 .905-.905.448-.904.448-2.98V92.926q0-2.067-.448-2.947-.457-.871-.905-.938h36.446v1.295l1.294 6.217q-1.618-.714-5.693-1.52-4.084-.813-9.844-.813h-10.94q-1.942 0-2.3.29-.356.3-.356 1.653v7.387q0 1.419.357 1.676.357.266 2.233.266h10.683q3.752 0 6.05-.424 2.3-.423 3.014-.871-.258.838-.581 2-.324 1.17-.523 2.333-.191 1.17-.191 2.14h-18.451q-1.876 0-2.233.225-.357.224-.357 1.718v8.026q0 1.486.324 1.743.324.266 2.266.266h18.84q3.753 0 6.052-.88 2.299-.871 3.013-1.71l-1.295 5.827Zm29.2 0h-25.573q.448 0 .905-.905.448-.904.448-2.98V92.926q0-2.067-.448-2.947-.457-.871-.905-.938h22.983q5.237 0 8.383 1.17 3.137 1.162 4.53 3.329 1.387 2.174 1.387 5.088 0 2.133-.805 3.718-.813 1.585-2.041 2.59-1.23 1.004-2.457 1.46v.125q4.208.971 6.34 3.527 2.142 2.565 2.142 6.574 0 3.17-1.494 5.727-1.485 2.565-4.756 4.05-3.27 1.486-8.64 1.486m-14.376-5.237h13.206q4.73 0 6.764-1.718 2.042-1.718 2.042-4.565 0-3.304-2.3-4.823-2.3-1.518-8.45-1.518h-11.195q-1.942 0-2.3.257-.356.257-.356 1.743v8.682q0 1.419.357 1.676.357.266 2.232.266m.067-17.156h11.778q3.627 0 5.345-1.395 1.718-1.394 1.718-4.565 0-2.656-1.718-3.984t-5.926-1.328h-11.197q-1.942 0-2.3.233-.356.224-.356 1.71v7.387q0 1.419.357 1.676.357.266 2.299.266m52.506 22.393h-20.335q.456 0 .913-.905.448-.904.448-2.98V92.926q0-2.067-.448-2.947-.457-.871-.913-.938h20.335q5.76 0 9.61 1.104t6.218 3.046q2.357 1.942 3.594 4.432 1.228 2.49 1.65 5.28.416 2.78.416 5.626 0 2.59-.415 5.346-.423 2.747-1.684 5.237-1.262 2.498-3.628 4.474t-6.216 3.137-9.545 1.162m-9.13-5.237h7.96q5.569 0 8.938-1.428 3.362-1.427 4.914-4.432 1.56-3.013 1.56-7.802v-1.17q0-5.047-1.427-7.993t-4.79-4.208q-3.37-1.262-9.196-1.262h-7.96q-1.875 0-2.232.224-.357.233-.357 1.586v24.543q0 1.419.357 1.676.357.266 2.233.266m38.852 5.237h-10.882q.266 0 .913-.905t1.677-3.037q.457-.972 1.56-3.304 1.096-2.332 2.59-5.503 1.486-3.17 3.104-6.64 1.619-3.46 3.08-6.631 1.452-3.171 2.556-5.57 1.095-2.398 1.552-3.37.905-2.066.97-2.97.067-.914-.256-.914h11.33q-.266 0-.2.913.066.905.905 2.971.456.972 1.494 3.337 1.037 2.366 2.49 5.536 1.46 3.17 3.013 6.574 1.552 3.394 3.038 6.565 1.494 3.179 2.59 5.57 1.103 2.398 1.618 3.436 1.037 2.133 1.917 3.037.87.905 1.32.905h-11.977q.647-.124 1.07-1.03.424-.912-.157-2.912-.133-.523-.457-1.494t-.58-1.42q-.39-.913-.781-1.295-.39-.39-1.004-.522-.614-.125-1.71-.125h-16.575q-1.23 0-1.942.091-.714.1-1.071.49t-.68 1.295q-.258.772-.515 1.552-.258.78-.39 1.428-.581 2.133-.324 3.037.257.905.714.905m5.893-13.977h13.006q1.884 0 2.075-.324.19-.324-.191-1.427-.847-2.075-1.942-4.499-1.104-2.432-2.233-4.856-1.137-2.431-2.208-4.664-1.062-2.233-1.842-3.918h-.133q-1.353 2.855-2.78 5.926-1.428 3.08-2.69 5.76-1.262 2.69-2.033 4.375l-.78 1.685q-.457 1.029-.291 1.485.158.457 2.042.457"/><path d="M879.729 127.885h-41.176q.133-.324.747-1.295t1.843-2.457q1.428-1.75 3.627-4.399 2.2-2.656 4.922-5.86 2.722-3.203 5.636-6.64 2.913-3.427 5.76-6.764 2.847-3.336 5.245-6.117v-.133h-17.421q-4.208 0-6.175.88-1.976.872-2.241 1.71v-7.769h38.586q-.257.39-1.004 1.361-.74.971-1.843 2.266-2.008 2.332-4.498 5.279t-5.28 6.183q-2.78 3.237-5.593 6.508-2.822 3.27-5.412 6.308-2.59 3.046-4.723 5.503v.199h21.88q3.626 0 5.735-.88 2.1-.871 2.68-1.71l-1.294 5.827Zm12.949 0h-9.97q.458 0 .906-.905.457-.904.457-2.98V92.926q0-2.067-.457-2.947-.448-.871-.905-.938h9.969q-.45 0-.905.913-.457.905-.457 3.038V124q0 2.075.457 2.98.456.904.905.904m22.916.648q-8.798 0-13.886-4.89-5.08-4.88-5.08-15.047 0-5.96 2.266-10.524 2.266-4.557 7.188-7.122 4.922-2.556 12.749-2.556 6.15 0 10.2.647 4.043.648 5.537 1.295v1.295l1.295 5.826q-1.752-1.294-6.15-2.59-4.408-1.294-10.75-1.294-5.178 0-8.548 1.909-3.362 1.917-4.947 5.279-1.585 3.37-1.585 7.835 0 4.664 1.452 7.96 1.46 3.303 4.632 5.021t8.283 1.718q4.407 0 6.997-.97t3.685-2.624q1.104-1.651 1.104-3.594v-1.685q0-1.485-.224-1.718-.233-.224-1.718-.224h-2.075q-3.627 0-5.794.457-2.166.448-2.747.904l.647-5.112v-1.295h20.394q-.457.058-.88.938-.415.871-.415 2.946V124q0 2.075.415 2.98.423.904.88.904h-8.483V126.4l.124-1.809-.124-.133q-1.037 1.104-2.722 2.042t-4.5 1.486-7.22.548m37.167-.648h-9.976q.456 0 .913-.905.448-.904.448-2.98V92.927q0-2.067-.448-2.947-.457-.871-.913-.938h10.034q-.058.2.49 1.17.548.971 2.042 2.847.448.581 1.909 2.333 1.453 1.743 3.652 4.299 2.208 2.565 4.764 5.57 2.557 3.012 5.18 6.083 2.622 3.08 5.013 5.86H976V92.926q0-2.066-.456-2.946-.448-.872-.905-.938h9.968q-.448 0-.904.913-.457.905-.457 3.038V124q0 2.075.457 2.98.456.904.904.904h-8.482q.066-.19-.515-1.195t-2.075-2.814q-.97-1.228-2.813-3.47-1.843-2.232-4.175-5.112t-4.955-6.05-5.18-6.342q-2.556-3.179-4.822-5.893h-.19V124q0 2.075.447 2.98.457.904.913.904m57.096.648q-7.055 0-12.491-.648-5.437-.647-7.836-1.295v-1.294l-1.294-6.923q.904 1.038 3.46 2.2t6.832 1.975q4.274.805 10.167.805 5.304 0 8.06-.738 2.747-.747 3.75-2.075t1.005-3.071q0-2.075-1.685-3.304-1.676-1.228-5.013-1.975t-8.258-1.328q-6.408-.839-10.292-2.233-3.885-1.394-5.628-3.727-1.751-2.324-1.751-5.884 0-3.046 1.843-5.445 1.85-2.39 5.602-3.785 3.752-1.394 9.578-1.394 6.74 0 11.72.647 4.988.647 7.055 1.295v1.295l1.942 5.826q-1.353-.838-4.175-1.743-2.814-.904-6.764-1.527-3.951-.614-8.807-.614-4.01 0-6.374.59-2.366.58-3.362 1.709-1.004 1.137-1.004 2.756 0 2.133 1.585 3.427t4.657 2.01q3.08.713 7.478 1.227 6.997.78 11.139 2.2 4.14 1.428 5.95 3.826 1.818 2.39 1.818 6.209 0 2.531-1.195 4.565-1.203 2.042-3.594 3.494-2.398 1.46-5.926 2.208-3.527.739-8.192.739"/><rect width="92.043" height="27.12" x="404.555" y="-395.488" fill="none" rx="0" ry="0" transform="matrix(.83 0 0 .83 225.592 393.581)"/><path d="M563.3 83.038q-.871 0-1.46-.423-.59-.431-.59-1.245 0-.88.415-1.635.424-.755 1.12-1.328.698-.564 1.52-.88.83-.323 1.643-.323.822 0 1.22.29t.399.706q0 .398-.374.846-.365.448-1.062.789-.44.199-1.005.348-.572.15-.987.15-.316 0-.316-.1 0-.083.274-.083.258 0 .805-.15.548-.149 1.07-.406.574-.315.814-.64.24-.315.24-.572 0-.24-.19-.398t-.523-.158q-.323 0-.722.174-.572.258-1.187.847-.606.59-1.004 1.286-.398.698-.398 1.337 0 .44.249.738t.747.3q.523 0 1.195-.333.68-.332 1.378-.813.697-.49 1.294-.988t.955-.838q.116-.116.183-.116.058 0 .058.1 0 .132-.125.232-.755.697-1.643 1.46-.88.756-1.893 1.279-1.004.53-2.1.547"/><path d="M569.285 83.055q-.797 0-1.403-.307-.606-.315-.888-1.145-.017-.083.05-.1.074-.025.09.075.2.44.515.622.324.175.698.175.639 0 1.128-.374.49-.382.88-.963.382-.572.697-1.178.307-.614.58-1.046.44-.739 1.047-1.336.614-.598 1.112-.739-.124-.058-.298-.058-.498 0-1.096.299-.598.298-1.212.772-.606.481-1.17 1.012-.573.523-1.038.971-.464.448-.747.706-.157.14-.24.14-.075 0-.075-.074 0-.124.1-.224.597-.515 1.228-1.162.64-.647 1.295-1.253.664-.614 1.336-1.013.68-.398 1.378-.398h.15q.066 0 .149.025.216.016.406.116t.108.141q-.456.2-.713.797-.258.597-.482 1.394-.216.797-.523 1.61-.315.822-.888 1.461.274-.1.872-.465.597-.357 1.32-.88.713-.53 1.336-1.17.074-.074.157-.074.1 0 .1.1 0 .074-.083.157-.54.514-1.195 1.104-.656.59-1.42 1.104-.771.523-1.585.846-.822.332-1.676.332"/><path d="M575.584 83.18q-.64 0-.98-.374-.34-.382-.34-1.062 0-.631.34-1.494l.042-.1-.357.34q-.083.083-.182.083t-.1-.083q0-.1.14-.24.516-.457 1.064-.963.547-.507.93-.963-.142.058-.3.058-.157 0-.24-.083-.141-.1-.141-.357 0-.216.207-.456.216-.241.872-.424.14-.033.29-.058.15-.016.282-.041.64-.897 1.12-1.66.474-.764.756-1.03.116-.132.432-.232.307-.1.655-.166.35-.058.548-.058.656 0 .656.125 0 .074-.3.373-.497.481-1.161 1.187-.672.705-1.37 1.527.582.075 1.07.299.483.216.707.556.075.1.075.24 0 .158-.1.158-.075 0-.174-.1-.424-.422-1.395-.422-.2 0-.406.024-.216.017-.432.059-.68.88-1.237 1.75-.556.88-.797 1.636-.116.357-.116.656 0 .298.14.49.134.19.416.19.183 0 .44-.1.374-.14.872-.472.498-.324 1.012-.747.507-.415.955-.814t.747-.68q.299-.274.34-.316.058-.058.1-.058.074 0 .074.116 0 .141-.116.258-.2.199-.606.597-.415.399-.937.888-.532.49-1.13.93t-1.203.722q-.606.29-1.162.29m5.18-.34q-.266 0-.4-.133-.223-.182-.223-.498 0-.464.357-.838.423-.481.963-.481.215 0 .398.124.216.175.216.498 0 .432-.357.83-.44.498-.955.498m19.373.623q-.125 0-.058-.158.116-.398-.523-.689t-1.702-.44-2.282-.15q-.797 0-1.57.059-.78.058-1.476.224-.482.1-1.005.282-.53.191-1.02.332-.482.141-.847.141-.232 0-.374-.083-.14-.074-.14-.357 0-.282.248-.647t.938-.739q.69-.365 1.984-.606.373-.083.556-.116.174-.041.515-.199 1.178-.523 2.365-1.037 1.179-.523 2.3-1.138.854-.481 1.21-1.004.358-.531.358-1.03 0-.638-.465-1.095t-1.162-.556q-.265-.041-.523-.058-.257-.025-.514-.025-1.18 0-2.117.316-.93.307-1.477.722-.548.423-.548.722 0 .332.672.332.482 0 1.279-.2.77-.199 1.352-.473.58-.282.955-.655.058-.067.083-.075.016-.008.04.075.018.058.018.157 0 .3-.282.565-.274.274-.672.506-.4.24-.772.39-.366.15-.565.208-.58.14-1.054.216-.481.066-.838.066-.68 0-.996-.19t-.316-.49q0-.432.532-.93.398-.365 1.079-.714t1.535-.63q.855-.291 1.768-.466.92-.166 1.776-.166.996 0 1.826.283.822.273 1.204.97.216.382.216.797 0 .598-.465 1.27-.473.664-1.47 1.303-1.095.698-2.547 1.22-1.453.532-2.79.988.955.025 1.993.158 1.037.141 1.925.44t1.436.78q.548.473.548 1.154v.116q0 .066-.025.141-.016.183-.116.183m4.664-.241q-1.054 0-1.693-.564-.63-.573-.63-1.486 0-.996.456-2.05.456-1.063 1.253-2.034.797-.98 1.793-1.743.996-.772 2.075-1.228 1.07-.457 2.108-.457 1.212 0 2.042.598t.83 1.95q0 .855-.49 1.826-.49.963-1.328 1.885-.838.913-1.892 1.66t-2.216 1.195q-1.17.448-2.308.448m.025-.498q.755 0 1.602-.332.847-.324 1.66-.905.822-.572 1.477-1.336.656-.755 1.054-1.602t.399-1.701q0-.756-.54-1.179-.53-.415-1.494-.415-.796 0-1.643.349t-1.627.954q-.788.606-1.41 1.37-.615.755-.972 1.577-.357.83-.357 1.626 0 .714.482 1.154.49.44 1.37.44m18.393.739q-.117 0-.06-.158.126-.398-.514-.689t-1.701-.44q-1.07-.15-2.283-.15-.796 0-1.577.059-.771.058-1.47.224-.48.1-1.011.282-.523.191-1.013.332t-.846.141q-.241 0-.382-.083-.133-.074-.133-.357 0-.282.249-.647t.93-.739q.688-.365 1.983-.606.382-.083.556-.116.183-.041.523-.199 1.17-.523 2.357-1.037 1.187-.523 2.3-1.138.863-.481 1.22-1.004.357-.531.357-1.03 0-.638-.465-1.095-.473-.456-1.17-.556-.258-.041-.515-.058-.257-.025-.523-.025-1.17 0-2.108.316-.938.307-1.486.722-.548.423-.548.722 0 .332.68.332.474 0 1.27-.2.78-.199 1.362-.473.573-.282.954-.655.059-.067.075-.075.025-.008.042.075.025.058.025.157 0 .3-.283.565-.282.274-.68.506-.4.24-.764.39t-.564.208q-.581.14-1.063.216-.473.066-.83.066-.68 0-.996-.19-.323-.192-.323-.49 0-.432.54-.93.398-.365 1.078-.714.672-.349 1.527-.63.864-.291 1.777-.466.913-.166 1.776-.166.996 0 1.817.283.83.273 1.204.97.224.382.224.797 0 .598-.473 1.27-.465.664-1.46 1.303-1.096.698-2.55 1.22-1.451.532-2.788.988.955.025 1.992.158 1.038.141 1.918.44.888.299 1.435.78.548.473.548 1.154v.116q0 .066-.016.141-.025.183-.125.183m7.262-.282q-.556 0-.98-.225-.414-.232-.613-.672-.158-.373-.158-.797 0-.456.15-.946.149-.49.365-.988-.274.025-.565.067-.29.033-.572.074-.598.1-1.096.274-.498.166-.896.166-.515 0-.573-.199-.042-.041-.042-.083 0-.199.216-.415.299-.299.64-.548.34-.249.68-.506.597-.44 1.42-1.087.83-.648 1.742-1.345.92-.697 1.81-1.303.88-.606 1.643-.988.755-.381 1.253-.381.274 0 .399.1.058.04.1.14.04.1-.125.083-.457-.041-.971.399-.523.44-1.046 1.195-.531.755-1.004 1.66-.482.905-.88 1.784 1.178.083 2.008.432.839.349.839 1.046 0 .058-.01.116t-.032.141q-.016.141-.116.125-.1-.009-.058-.108.116-.3-.274-.498-.382-.2-1.104-.307-.714-.108-1.61-.108-.257.672-.448 1.22t-.233.846q-.016.1-.025.191-.016.092-.016.191 0 .357.14.648.142.29.457.448.083.016.025.066t-.1.075q-.082.016-.174.016Zm-3.444-4.2q.514-.141 1.212-.233.697-.091 1.436-.124.24-.44.464-.822.233-.373.415-.672.233-.399.465-.789t.507-.747q-.2.141-.706.515l-1.162.88q-.664.498-1.345 1.02-.688.532-1.286.972"/></g><path fill="transparent" stroke="transparent" d="M476.577 0h559v148h-559z"/></g></svg>