<svg xmlns="http://www.w3.org/2000/svg" xml:space="preserve" width="1500" height="1500" data-id="lg_kYllKEEKFZPmiCwPLO" data-version="1" viewBox="0 0 1500 1500"><path stroke="transparent" d="M0 0h1500v1500H0z"/><g data-padding="20"><path fill="#71a396" d="M433.805 594.156a141.202 141.202 0 1 0 0 282.405 141.202 141.202 0 1 0 0-282.405"/><path fill="#f2eeeb" d="m538.772 766.544-21.33 71.907h-10.904l-24.43-86.784h10.538l19.344 74.768 21.33-74.768h11.031l21.204 74.64 19.455-74.64h10.426l-24.43 86.784h-10.903Zm122.245-14.877v8.678h-46.984v29.627h35.334v8.679h-35.334v31.121h46.984v8.679h-56.902v-86.784Zm65.581 23.555q0-6.818-4.53-10.84-4.514-4.037-13.446-4.037H684.08v29.627h24.907q8.44 0 13.018-3.957 4.593-3.974 4.593-10.793m-16.117 63.229h-36.319v-86.784h35.334q9.17 0 15.115 3.099 5.96 3.1 8.87 8.122t2.908 11.095q0 5.96-2.161 9.981-2.178 4.038-5.834 6.39t-7.995 3.226v.859q5.214.747 9.299 3.29t6.453 6.882q2.352 4.34 2.352 10.538 0 6.438-3.226 11.778-3.227 5.325-9.49 8.424t-15.306 3.1m-26.4-39.8v31.121h25.653q8.933 0 13.956-4.02 5.022-4.038 5.022-11.604 0-7.55-5.277-11.523-5.26-3.974-14.066-3.974Zm66.439-46.984h28.642q14.384 0 24.604 5.277 10.236 5.26 15.752 15.052 5.515 9.807 5.515 23.317 0 13.383-5.515 23.063-5.516 9.664-15.752 14.877-10.22 5.198-24.604 5.198H750.52Zm9.918 78.105h18.724q17.738 0 26.782-9.044 9.044-9.06 9.044-25.415 0-16.499-9.044-25.733t-26.782-9.235h-18.724Zm136.74 8.679-28.387-78.106h-4.1l-28.643 78.106h-10.03l31.726-86.784h17.866l31.614 86.784Zm-55.662-22.809v-8.678h50.576v8.678Zm127.713-63.975v7.82l-47.859 70.285h48.351v8.679h-59.89v-7.804l47.731-70.302H910.34v-8.678Zm12.509 86.784v-86.784h9.918v86.784Zm102.17-63.976-8.678 3.227q-4.721-9.298-12.525-13.701-7.82-4.403-17.357-4.403-9.426 0-16.992 4.34t-11.905 12.286q-4.339 7.931-4.339 18.835 0 10.792 4.34 18.723t11.904 12.271 16.992 4.34q7.057 0 13.145-2.417 6.071-2.416 10.538-6.946 4.45-4.514 6.818-10.84v-10.045h-29.754v-8.059h39.784v18.597q-2.845 8.313-8.679 14.75-5.817 6.453-14.003 10.173t-17.85 3.719q-9.17 0-17.054-3.227-7.868-3.226-13.765-9.107-5.88-5.897-9.17-14.02-3.275-8.121-3.275-17.912t3.274-17.913q3.29-8.123 9.171-14.004 5.897-5.896 13.765-9.123 7.884-3.21 17.055-3.21 8.551 0 16.053 2.78 7.503 2.798 13.32 8.06 5.833 5.276 9.187 12.826m69.777-22.808h9.918v86.784h-10.045l-46.364-70.906v70.906h-9.919v-86.784h10.046l46.364 70.794Zm21.346 68.314 9.044-3.592q.748 3.338 3.164 6.628t6.691 5.452q4.276 2.178 10.967 2.178 9.553 0 14.147-4.467 4.577-4.466 4.577-10.538 0-4.832-2.607-7.931-2.59-3.1-7.057-5.15t-10.045-3.656q-4.96-1.367-9.855-3.036t-8.869-4.212q-3.958-2.543-6.326-6.644-2.352-4.085-2.352-10.156 0-7.312 3.48-12.716 3.466-5.388 9.792-8.36t14.75-2.973q7.311 0 12.763 2.098 5.468 2.114 9.124 5.897t5.388 8.742l-8.806 3.338q-.858-2.845-3.338-5.515t-6.453-4.403-9.044-1.733q-4.959 0-8.996 1.733-4.021 1.732-6.39 4.959-2.352 3.227-2.352 7.82 0 4.96 2.797 7.868 2.782 2.909 7.439 4.705 4.641 1.796 10.22 3.417 5.086 1.605 9.855 3.465 4.784 1.86 8.551 4.594 3.783 2.718 6.024 6.818 2.225 4.085 2.225 10.046 0 6.564-3.1 12.207t-9.361 9.044q-6.262 3.417-16.053 3.417-8.186 0-14.385-2.543t-10.157-6.882q-3.973-4.34-5.452-9.919m-676.25 85.084q-1.684 0-2.813-.827-1.112-.81-1.112-2.384 0-1.669.794-3.115.795-1.462 2.13-2.543t2.925-1.7q1.59-.605 3.147-.605t2.32.556q.763.54.763 1.351 0 .763-.699 1.622t-2.034 1.51q-.843.381-1.94.667-1.08.286-1.875.286-.62 0-.62-.19 0-.16.54-.16.493 0 1.542-.285t2.035-.78q1.112-.62 1.573-1.223t.461-1.113q0-.445-.365-.763-.366-.302-1.018-.302-.604 0-1.367.35-1.112.493-2.272 1.621t-1.924 2.464-.763 2.543q0 .842.477 1.415t1.43.572q.986 0 2.29-.62 1.287-.636 2.622-1.574t2.48-1.891 1.843-1.59q.223-.238.334-.238t.112.19q0 .271-.223.462-1.446 1.335-3.147 2.781t-3.624 2.464-4.021 1.049"/><path fill="#f2eeeb" d="M510.226 905.097q-1.526 0-2.687-.588-1.176-.588-1.7-2.194-.048-.143.095-.19.127-.032.175.158.381.843.985 1.177.604.35 1.336.35 1.223 0 2.161-.732.922-.715 1.67-1.828t1.334-2.273 1.129-2.002q.842-1.415 2.003-2.56t2.114-1.398q-.223-.127-.573-.127-.953 0-2.098.572t-2.304 1.494-2.258 1.923q-1.08 1.017-1.97 1.876-.906.858-1.43 1.35-.319.271-.462.271-.159 0-.159-.159 0-.222.19-.413 1.145-1.002 2.37-2.241t2.479-2.4 2.559-1.924q1.287-.763 2.622-.763h.286q.144 0 .287.032.429.048.794.239.35.19.207.27-.874.381-1.383 1.526-.493 1.144-.906 2.67-.429 1.526-1.017 3.084t-1.7 2.781q.54-.19 1.684-.874t2.511-1.7q1.383-1.002 2.56-2.226.158-.159.301-.159.191 0 .191.19 0 .16-.143.303-1.033 1.001-2.289 2.13-1.255 1.112-2.734 2.114-1.462.985-3.036 1.62-1.557.62-3.194.62"/><path fill="#f2eeeb" d="M522.274 905.335q-1.224 0-1.86-.731-.652-.715-.652-2.019 0-1.224.652-2.86l.064-.191-.684.651q-.143.143-.334.143t-.19-.143q0-.19.254-.46 1.001-.875 2.05-1.844 1.05-.986 1.765-1.86-.255.111-.573.111-.302 0-.445-.143-.27-.19-.27-.683 0-.43.398-.89.397-.445 1.653-.795.27-.08.556-.111.286-.048.556-.08 1.224-1.716 2.13-3.179.922-1.478 1.462-1.97.223-.27.811-.462t1.256-.302 1.049-.11q1.271 0 1.271.222 0 .159-.572.73-.954.907-2.241 2.274-1.272 1.35-2.607 2.908 1.097.16 2.035.573.938.429 1.35 1.065.16.19.16.46 0 .302-.191.302-.159 0-.35-.19-.794-.795-2.67-.795-.381 0-.779.032-.397.047-.81.127-1.304 1.669-2.369 3.354-1.065 1.669-1.526 3.13-.238.684-.238 1.257t.27.937q.27.35.81.35.335 0 .827-.19.732-.255 1.685-.89t1.923-1.431 1.828-1.558 1.43-1.303.652-.604q.112-.127.191-.127.16 0 .16.238 0 .27-.24.493-.38.381-1.16 1.144t-1.796 1.7q-1.001.939-2.145 1.765-1.145.843-2.305 1.399-1.176.556-2.241.556m9.918-.652q-.493 0-.763-.27-.413-.334-.413-.953 0-.875.683-1.606.795-.906 1.828-.906.43 0 .763.223.43.35.43.953 0 .843-.7 1.606-.827.953-1.828.953m37.114 1.16q-.223 0-.112-.301.239-.763-.985-1.32-1.224-.54-3.258-.826-2.05-.286-4.371-.286-1.526 0-3.02.111-1.479.111-2.814.413-.922.191-1.939.557-1.001.365-1.939.636-.938.254-1.621.254-.461 0-.731-.143-.255-.16-.255-.684 0-.54.477-1.24.477-.715 1.78-1.414 1.32-.715 3.8-1.16.73-.16 1.064-.239.35-.08 1.001-.381l4.515-1.987q2.272-.986 4.402-2.162 1.653-.922 2.337-1.939.683-1.001.683-1.955 0-1.224-.89-2.098-.906-.874-2.24-1.065-.494-.08-.986-.127-.493-.032-1.002-.032-2.24 0-4.037.588t-2.845 1.399q-1.05.795-1.05 1.367 0 .652 1.304.652.906 0 2.432-.382 1.494-.381 2.607-.922 1.097-.524 1.828-1.255.11-.112.143-.128.047-.016.08.128.047.11.047.302 0 .572-.54 1.096-.541.509-1.304.97t-1.462.747-1.081.397q-1.113.27-2.035.398-.906.143-1.589.143-1.303 0-1.907-.366-.62-.366-.62-.938 0-.842 1.033-1.796.763-.683 2.066-1.35 1.288-.668 2.925-1.225 1.653-.556 3.401-.874t3.402-.318q1.907 0 3.48.525 1.59.54 2.305 1.875.43.716.43 1.526 0 1.145-.907 2.416-.89 1.288-2.797 2.496-2.098 1.335-4.88 2.352t-5.34 1.891q1.828.032 3.815.302t3.671.843q1.7.572 2.75 1.478 1.049.922 1.049 2.225v.223q0 .111-.032.27-.048.334-.238.334m8.932-.445q-2.018 0-3.242-1.097-1.224-1.08-1.224-2.845 0-1.907.874-3.926.89-2.019 2.416-3.894 1.526-1.86 3.434-3.338 1.907-1.462 3.957-2.337 2.067-.874 4.053-.874 2.321 0 3.91 1.145 1.574 1.144 1.574 3.735 0 1.637-.938 3.48-.922 1.86-2.527 3.609-1.605 1.764-3.624 3.195t-4.26 2.288q-2.225.859-4.403.859m.032-.954q1.463 0 3.084-.636t3.179-1.732q1.557-1.113 2.829-2.56 1.256-1.446 2.019-3.067t.763-3.258q0-1.463-1.034-2.257t-2.86-.795q-1.527 0-3.148.668t-3.131 1.827-2.686 2.607-1.876 3.036q-.683 1.59-.683 3.115 0 1.367.938 2.21t2.606.842m35.27 1.399q-.222 0-.111-.302.223-.763-1.001-1.32-1.208-.54-3.259-.826-2.034-.286-4.37-.286-1.527 0-3.005.111-1.494.111-2.829.413-.906.191-1.923.557t-1.94.636q-.937.254-1.62.254-.462 0-.732-.143-.27-.16-.27-.684 0-.54.477-1.24.477-.715 1.796-1.414 1.32-.715 3.799-1.16l1.065-.239q.35-.08.985-.381 2.257-.986 4.53-1.987 2.273-.986 4.403-2.162 1.637-.922 2.32-1.939.7-1.001.7-1.955 0-1.224-.906-2.098-.89-.874-2.225-1.065-.493-.08-1.002-.127-.492-.032-.985-.032-2.257 0-4.037.588-1.797.588-2.846 1.399-1.049.795-1.049 1.367 0 .652 1.288.652.922 0 2.448-.382 1.494-.381 2.59-.922 1.113-.524 1.828-1.255.127-.112.16-.128t.079.128q.032.11.032.302 0 .572-.525 1.096-.54.509-1.303.97t-1.463.747q-.715.286-1.096.397-1.097.27-2.019.398-.922.143-1.605.143-1.288 0-1.908-.366-.604-.366-.604-.938 0-.842 1.033-1.796.763-.683 2.05-1.35 1.304-.668 2.941-1.225t3.402-.874q1.748-.318 3.385-.318 1.908 0 3.497.525 1.574.54 2.305 1.875.413.716.413 1.526 0 1.145-.89 2.416-.89 1.288-2.797 2.496-2.099 1.335-4.896 2.352-2.781 1.017-5.34 1.891 1.843.032 3.814.302 1.987.27 3.688.843t2.75 1.478q1.049.922 1.049 2.225v.223q0 .111-.048.27-.032.334-.223.334m13.876-.509q-1.08 0-1.875-.445-.795-.43-1.177-1.271-.317-.732-.317-1.526 0-.875.286-1.812t.715-1.892q-.54.032-1.097.111l-1.08.16q-1.145.19-2.099.508-.953.334-1.716.334-.986 0-1.113-.382-.063-.08-.063-.159 0-.381.413-.794.572-.573 1.224-1.05t1.287-.985q1.145-.826 2.734-2.066t3.338-2.575 3.449-2.511q1.7-1.16 3.147-1.876 1.446-.731 2.4-.731.54 0 .763.19.127.08.19.27.08.192-.222.144-.874-.064-1.875.763-.986.842-2.003 2.289-1.001 1.462-1.923 3.194-.906 1.733-1.67 3.418 2.242.143 3.847.81t1.606 2.003q0 .111-.016.239-.032.11-.064.254-.032.27-.222.254t-.127-.206q.238-.573-.51-.954t-2.113-.588q-1.383-.223-3.1-.223-.492 1.304-.858 2.353-.35 1.049-.429 1.62-.048.192-.064.366t-.015.366q0 .684.27 1.24.27.54.874.858.159.032.032.127-.111.096-.191.127-.143.048-.318.048Zm-6.612-8.058q1.001-.255 2.337-.43t2.75-.254q.444-.842.89-1.558.445-.73.778-1.303.461-.763.906-1.51.43-.731.97-1.43-.382.27-1.351 1.001-.986.715-2.241 1.669t-2.575 1.97-2.464 1.845"/><path fill="transparent" stroke="transparent" stroke-width="1.645" d="M276.142 588.787h973.859v322.426H276.142z"/></g></svg>